<?xml version="1.0" encoding="UTF-8" standalone="no"?>
<!-- Created with Inkscape (http://www.inkscape.org/) -->

<svg
   xmlns:dc="http://purl.org/dc/elements/1.1/"
   xmlns:cc="http://creativecommons.org/ns#"
   xmlns:rdf="http://www.w3.org/1999/02/22-rdf-syntax-ns#"
   xmlns:svg="http://www.w3.org/2000/svg"
   xmlns="http://www.w3.org/2000/svg"
   xmlns:sodipodi="http://sodipodi.sourceforge.net/DTD/sodipodi-0.dtd"
   xmlns:inkscape="http://www.inkscape.org/namespaces/inkscape"
   width="300"
   height="300"
   id="svg2"
   version="1.1"
   inkscape:version="0.48.4 r9939"
   sodipodi:docname="AppImage.svg"
   inkscape:export-filename="C:\Users\Archerofyail\Git Repos\RoboReflector\SourceFiles\AppImage.png"
   inkscape:export-xdpi="90"
   inkscape:export-ydpi="90">
  <defs
     id="defs4" />
  <sodipodi:namedview
     id="base"
     pagecolor="#ffffff"
     bordercolor="#666666"
     borderopacity="1.0"
     inkscape:pageopacity="0.0"
     inkscape:pageshadow="2"
     inkscape:zoom="1.4"
     inkscape:cx="69.480467"
     inkscape:cy="154.51639"
     inkscape:document-units="px"
     inkscape:current-layer="text2985"
     showgrid="false"
     inkscape:window-width="1318"
     inkscape:window-height="727"
     inkscape:window-x="2208"
     inkscape:window-y="108"
     inkscape:window-maximized="0" />
  <metadata
     id="metadata7">
    <rdf:RDF>
      <cc:Work
         rdf:about="">
        <dc:format>image/svg+xml</dc:format>
        <dc:type
           rdf:resource="http://purl.org/dc/dcmitype/StillImage" />
        <dc:title></dc:title>
      </cc:Work>
    </rdf:RDF>
  </metadata>
  <g
     inkscape:label="Layer 1"
     inkscape:groupmode="layer"
     id="layer1"
     transform="translate(0,-752.36218)">
    <g
       transform="translate(0,752.36218)"
       style="font-size:40px;font-style:normal;font-weight:normal;line-height:125%;letter-spacing:0px;word-spacing:0px;fill:#000000;fill-opacity:1;stroke:none;font-family:Sans"
       id="text2985">
      <path
         d="m 184.55637,178.44674 -38.9668,0 -23.42208,-38.75673 c -1.75061,-2.94085 -3.43112,-5.56664 -5.04153,-7.87738 -1.61056,-2.31065 -3.23855,-4.28875 -4.88397,-5.9343 -1.64557,-1.64544 -3.36109,-2.90582 -5.14657,-3.78114 -1.7856,-0.87521 -3.72869,-1.31284 -5.82926,-1.3129 l -9.137765,0 0,57.66245 -33.925267,0 0,-150.615578 53.776272,0 c 36.55096,1.51e-4 54.82647,13.654269 54.8266,40.962399 -1.3e-4,5.251694 -0.80537,10.100657 -2.41573,14.546901 -1.61062,4.446437 -3.8863,8.455147 -6.82707,12.026139 -2.941,3.571158 -6.49458,6.652089 -10.66073,9.242799 -4.16636,2.59085 -8.80526,4.62147 -13.91671,6.09184 l 0,0.42016 c 2.24059,0.70027 4.41124,1.83812 6.51197,3.41353 2.10053,1.57554 4.13115,3.41359 6.09184,5.51417 1.96049,2.10069 3.83356,4.35887 5.61921,6.77454 1.78543,2.41578 3.41342,4.779 4.88397,7.08965 z M 92.128395,53.248857 l 0,41.907683 14.704455,0 c 7.28213,8e-5 13.12889,-2.100555 17.5403,-6.301907 4.48127,-4.271202 6.72195,-9.557797 6.72204,-15.859801 -9e-5,-13.163867 -7.87747,-19.745852 -23.63215,-19.745975 z"
         style="font-variant:normal;font-weight:bold;font-stretch:normal;font-family:Segoe UI;-inkscape-font-specification:Segoe UI Bold;fill-opacity:1;fill:#ffffff"
         id="path2992"
         inkscape:connector-curvature="0" />
      <path
         d="m 248.20847,268.57144 -36.81371,0 -22.12794,-36.61532 c -1.6539,-2.77837 -3.24156,-5.25907 -4.76296,-7.44211 -1.52156,-2.18298 -3.05963,-4.05179 -4.6141,-5.60642 -1.55469,-1.55453 -3.17541,-2.74525 -4.86224,-3.5722 -1.68693,-0.82685 -3.52266,-1.2403 -5.50715,-1.24035 l -8.63288,0 0,54.4764 -32.05075,0 0,-142.29354 50.80493,0 c 34.53135,1.6e-4 51.7971,12.89983 51.79721,38.69908 -1.1e-4,4.96151 -0.76086,9.54254 -2.28226,13.74314 -1.52161,4.20076 -3.67157,7.98796 -6.44984,11.36161 -2.77852,3.37386 -6.13571,6.28457 -10.07167,8.7321 -3.93617,2.44773 -8.31875,4.36612 -13.14776,5.75528 l 0,0.39679 c 2.11679,0.66158 4.16748,1.73656 6.15217,3.22489 1.98444,1.48849 3.90289,3.225 5.75524,5.20949 1.85214,1.98464 3.62173,4.11804 5.3087,6.40025 1.68678,2.28231 3.2248,4.51494 4.61411,6.69792 z m -87.32098,-118.28028 0,39.59213 13.892,0 c 6.87975,1e-4 12.40347,-1.98449 16.57115,-5.95368 4.23362,-4.03523 6.35051,-9.02971 6.35061,-14.98349 -10e-5,-12.43654 -7.44221,-18.65481 -22.32643,-18.65496 z"
         style="font-variant:normal;font-weight:bold;font-stretch:normal;font-family:Segoe UI;-inkscape-font-specification:Segoe UI Bold;fill-opacity:1;fill:#ffffff"
         id="path2994"
         inkscape:connector-curvature="0" />
    </g>
  </g>
</svg>
