<?xml version="1.0" encoding="UTF-8" standalone="no"?>
<!-- Created with Inkscape (http://www.inkscape.org/) -->

<svg
   xmlns:dc="http://purl.org/dc/elements/1.1/"
   xmlns:cc="http://creativecommons.org/ns#"
   xmlns:rdf="http://www.w3.org/1999/02/22-rdf-syntax-ns#"
   xmlns:svg="http://www.w3.org/2000/svg"
   xmlns="http://www.w3.org/2000/svg"
   xmlns:sodipodi="http://sodipodi.sourceforge.net/DTD/sodipodi-0.dtd"
   xmlns:inkscape="http://www.inkscape.org/namespaces/inkscape"
   width="1080"
   height="900"
   id="svg2"
   version="1.1"
   inkscape:version="0.48.4 r9939"
   sodipodi:docname="TitleImage.svg"
   inkscape:export-filename="C:\Users\Archerofyail\Git Repos\RoboReflector\RoboReflector\Assets\Images\TitleImage.png"
   inkscape:export-xdpi="71.699997"
   inkscape:export-ydpi="71.699997">
  <defs
     id="defs4" />
  <sodipodi:namedview
     id="base"
     pagecolor="#ffffff"
     bordercolor="#666666"
     borderopacity="1.0"
     inkscape:pageopacity="0.0"
     inkscape:pageshadow="2"
     inkscape:zoom="0.49497475"
     inkscape:cx="341.43285"
     inkscape:cy="461.56404"
     inkscape:document-units="px"
     inkscape:current-layer="text3939-8"
     showgrid="false"
     inkscape:window-width="1309"
     inkscape:window-height="779"
     inkscape:window-x="1945"
     inkscape:window-y="141"
     inkscape:window-maximized="0"
     showguides="true"
     inkscape:guide-bbox="true" />
  <metadata
     id="metadata7">
    <rdf:RDF>
      <cc:Work
         rdf:about="">
        <dc:format>image/svg+xml</dc:format>
        <dc:type
           rdf:resource="http://purl.org/dc/dcmitype/StillImage" />
        <dc:title></dc:title>
      </cc:Work>
    </rdf:RDF>
  </metadata>
  <g
     inkscape:label="Layer 1"
     inkscape:groupmode="layer"
     id="layer1"
     transform="translate(0,-152.36218)">
    <g
       style="font-size:40px;font-style:normal;font-weight:normal;line-height:125%;letter-spacing:0px;word-spacing:0px;fill:#4d8486;fill-opacity:1;stroke:none;font-family:Sans"
       id="text3939"
       transform="matrix(0.91867296,0,0,0.8879793,28.262443,61.237246)">
      <path
         d="m 137.73489,474.55493 -30.9536,-59.69623 c 5.89582,-2.80134 11.18874,-7.29866 15.87879,-13.49196 4.68982,-6.19315 7.16879,-14.15766 7.43691,-23.89356 -0.0504,-12.2063 -4.22107,-22.81728 -12.5121,-31.83297 -8.29124,-9.01543 -20.401321,-13.74724 -36.330276,-14.19544 l -56.68127,0 0,143.11016 35.174547,0 0,-53.26431 11.858847,0 25.325674,53.26431 z M 94.922438,377.47318 c -0.03358,3.85673 -1.373564,7.19831 -4.019948,10.02475 -2.646546,2.82661 -6.398494,4.30896 -11.255855,4.44707 l -19.898744,0 0,-28.94363 19.898744,0 c 4.857365,0.1383 8.609313,1.62065 11.255855,4.44707 2.64638,2.82663 3.986362,6.1682 4.019948,10.02474 z"
         style="font-size:201px;font-variant:normal;font-weight:bold;font-stretch:normal;font-family:DINPro-Black;-inkscape-font-specification:DINPro-Black;fill:#4d8486;fill-opacity:1"
         id="path4017"
         inkscape:connector-curvature="0" />
      <path
         d="m 260.01209,402.99985 c 0.33907,-10.82865 -0.18855,-21.07951 -1.58285,-30.7526 -1.39453,-9.67289 -5.69085,-18.31577 -12.88896,-25.92867 -5.14647,-5.24255 -10.93351,-9.22899 -17.36115,-11.95935 -6.42781,-2.73007 -13.97358,-4.10355 -22.63733,-4.12044 -8.66389,0.0169 -16.20966,1.39037 -22.63734,4.12044 -6.42777,2.73035 -12.21481,6.7168 -17.36115,11.95935 -7.19824,7.6129 -11.49455,16.25578 -12.88896,25.92867 -1.39443,9.67309 -1.92205,19.92395 -1.58285,30.7526 -0.33919,10.8288 0.18842,21.07966 1.58285,30.75261 1.39441,9.67303 5.69072,18.31591 12.88896,25.92866 5.14634,5.24269 10.93339,9.22914 17.36115,11.95935 6.42768,2.73021 13.97345,4.10369 22.63734,4.12045 8.66375,-0.0168 16.20951,-1.39024 22.63732,-4.12045 6.42764,-2.73022 12.21469,-6.71666 17.36116,-11.95935 7.19811,-7.61275 11.49442,-16.25563 12.88896,-25.92866 1.3943,-9.67295 1.92192,-19.92381 1.58285,-30.75261 z m -35.17454,0 c -0.0168,12.62521 -0.48583,21.19272 -1.40698,25.70255 -0.92133,4.50992 -2.19431,7.60025 -3.81896,9.271 -1.32749,1.76295 -3.19509,3.26205 -5.6028,4.49732 -2.40785,1.23532 -5.23019,1.88019 -8.46701,1.9346 -3.23696,-0.0544 -6.05929,-0.69927 -8.46702,-1.9346 -2.40784,-1.23527 -4.27544,-2.73437 -5.6028,-4.49732 -1.62478,-1.67075 -2.89776,-4.76109 -3.81895,-9.27101 -0.92129,-4.50983 -1.39028,-13.07733 -1.40699,-25.70254 0.0167,-12.63344 0.48571,-21.23445 1.40699,-25.80304 0.92118,-4.56841 2.19417,-7.69224 3.81895,-9.3715 1.32736,-1.75444 3.19496,-3.22004 5.6028,-4.39682 2.40772,-1.17656 5.23006,-1.78793 8.46702,-1.8341 3.23682,0.0462 6.05916,0.65754 8.46701,1.8341 2.40771,1.17678 4.27531,2.64239 5.6028,4.39682 1.62466,1.67926 2.89764,4.8031 3.81896,9.3715 0.92115,4.5686 1.39014,13.16961 1.40698,25.80304 z"
         style="font-size:201px;font-variant:normal;font-weight:bold;font-stretch:normal;font-family:DINPro-Black;-inkscape-font-specification:DINPro-Black;fill:#4d8486;fill-opacity:1"
         id="path4019"
         inkscape:connector-curvature="0" />
      <path
         d="m 391.39069,432.34548 c -0.37281,-9.86558 -2.59215,-17.11823 -6.65805,-21.75798 -4.06612,-4.63962 -7.74269,-7.77182 -11.02973,-9.39662 2.58774,-1.48229 5.75344,-4.5475 9.49713,-9.19564 3.74346,-4.64797 5.80368,-11.02964 6.18067,-19.145 -0.042,-12.54129 -3.92794,-22.53252 -11.65785,-29.97374 -7.73013,-7.44095 -19.05297,-11.25152 -33.96856,-11.43173 l -59.29424,0 0,143.11016 62.3092,0 c 13.02705,-0.0502 23.65478,-3.66819 31.88321,-10.85386 8.22822,-7.18564 12.47428,-17.6375 12.73822,-31.35559 z m -35.17455,-2.00998 c 0.0669,3.16575 -0.87108,6.02996 -2.81397,8.59264 -1.94305,2.56275 -5.29301,3.91948 -10.04987,4.0702 l -23.71769,0 0,-25.12468 23.71769,0 c 4.75686,0.14243 8.10682,1.46567 10.04987,3.9697 1.94289,2.50414 2.88088,5.33485 2.81397,8.49214 z m -2.00998,-55.67628 c 0.0753,2.94806 -0.82919,5.59452 -2.71346,7.93939 -1.88444,2.34506 -5.20089,3.58454 -9.94937,3.71846 l -21.90872,0 0,-23.3157 21.90872,0 c 4.74849,0.13411 8.06494,1.37359 9.94937,3.71845 1.88426,2.34507 2.78875,4.99153 2.71346,7.9394 z"
         style="font-size:201px;font-variant:normal;font-weight:bold;font-stretch:normal;font-family:DINPro-Black;-inkscape-font-specification:DINPro-Black;fill:#4d8486;fill-opacity:1"
         id="path4021"
         inkscape:connector-curvature="0" />
      <path
         d="m 519.89881,402.99985 c 0.33907,-10.82865 -0.18855,-21.07951 -1.58285,-30.7526 -1.39454,-9.67289 -5.69085,-18.31577 -12.88896,-25.92867 -5.14647,-5.24255 -10.93351,-9.22899 -17.36115,-11.95935 -6.42782,-2.73007 -13.97359,-4.10355 -22.63734,-4.12044 -8.66388,0.0169 -16.20965,1.39037 -22.63733,4.12044 -6.42777,2.73035 -12.21481,6.7168 -17.36115,11.95935 -7.19824,7.6129 -11.49455,16.25578 -12.88896,25.92867 -1.39443,9.67309 -1.92205,19.92395 -1.58285,30.7526 -0.33919,10.8288 0.18842,21.07966 1.58285,30.75261 1.39441,9.67303 5.69072,18.31591 12.88896,25.92866 5.14634,5.24269 10.93338,9.22914 17.36115,11.95935 6.42768,2.73021 13.97345,4.10369 22.63733,4.12045 8.66375,-0.0168 16.20952,-1.39024 22.63733,-4.12045 6.42764,-2.73022 12.21469,-6.71666 17.36116,-11.95935 7.19811,-7.61275 11.49442,-16.25563 12.88896,-25.92866 1.3943,-9.67295 1.92191,-19.92381 1.58285,-30.75261 z m -35.17454,0 c -0.0168,12.62521 -0.48583,21.19272 -1.40699,25.70255 -0.92132,4.50992 -2.1943,7.60025 -3.81895,9.271 -1.32749,1.76295 -3.19509,3.26205 -5.6028,4.49732 -2.40786,1.23532 -5.23019,1.88019 -8.46702,1.9346 -3.23695,-0.0544 -6.05928,-0.69927 -8.46701,-1.9346 -2.40784,-1.23527 -4.27544,-2.73437 -5.6028,-4.49732 -1.62478,-1.67075 -2.89776,-4.76109 -3.81896,-9.27101 -0.92128,-4.50983 -1.39027,-13.07733 -1.40698,-25.70254 0.0167,-12.63344 0.4857,-21.23445 1.40698,-25.80304 0.92119,-4.56841 2.19417,-7.69224 3.81896,-9.3715 1.32736,-1.75444 3.19496,-3.22004 5.6028,-4.39682 2.40772,-1.17656 5.23006,-1.78793 8.46701,-1.8341 3.23683,0.0462 6.05917,0.65754 8.46702,1.8341 2.40771,1.17678 4.27531,2.64239 5.6028,4.39682 1.62466,1.67926 2.89764,4.8031 3.81895,9.3715 0.92116,4.5686 1.39015,13.16961 1.40699,25.80304 z"
         style="font-size:201px;font-variant:normal;font-weight:bold;font-stretch:normal;font-family:DINPro-Black;-inkscape-font-specification:DINPro-Black;fill:#4d8486;fill-opacity:1"
         id="path4023"
         inkscape:connector-curvature="0" />
      <path
         d="m 137.73489,725.80493 -30.9536,-59.69623 c 5.89582,-2.80134 11.18874,-7.29866 15.87879,-13.49196 4.68982,-6.19315 7.16879,-14.15766 7.43691,-23.89356 -0.0504,-12.2063 -4.22107,-22.81728 -12.5121,-31.83297 -8.29124,-9.01543 -20.401321,-13.74724 -36.330276,-14.19544 l -56.68127,0 0,143.11016 35.174547,0 0,-53.26431 11.858847,0 25.325674,53.26431 z M 94.922438,628.72318 c -0.03358,3.85673 -1.373564,7.19831 -4.019948,10.02475 -2.646546,2.82661 -6.398494,4.30896 -11.255855,4.44707 l -19.898744,0 0,-28.94363 19.898744,0 c 4.857365,0.1383 8.609313,1.62065 11.255855,4.44707 2.64638,2.82663 3.986362,6.1682 4.019948,10.02474 z"
         style="font-size:201px;font-variant:normal;font-weight:bold;font-stretch:normal;font-family:DINPro-Black;-inkscape-font-specification:DINPro-Black;fill:#4d8486;fill-opacity:1"
         id="path4025"
         inkscape:connector-curvature="0" />
      <path
         d="m 252.97719,725.80493 0,-31.35559 -62.10821,0 0,-25.12468 53.06332,0 0,-31.3556 -53.06332,0 0,-23.91869 62.10821,0 0,-31.3556 -97.28275,0 0,143.11016 z"
         style="font-size:201px;font-variant:normal;font-weight:bold;font-stretch:normal;font-family:DINPro-Black;-inkscape-font-specification:DINPro-Black;fill:#4d8486;fill-opacity:1"
         id="path4027"
         inkscape:connector-curvature="0" />
      <path
         d="m 375.06898,614.05037 0,-31.3556 -97.28275,0 0,143.11016 35.17455,0 0,-55.27429 53.06332,0 0,-31.35559 -53.06332,0 0,-25.12468 z"
         style="font-size:201px;font-variant:normal;font-weight:bold;font-stretch:normal;font-family:DINPro-Black;-inkscape-font-specification:DINPro-Black;fill:#4d8486;fill-opacity:1"
         id="path4029"
         inkscape:connector-curvature="0" />
      <path
         d="m 492.79534,725.80493 0,-31.35559 -60.09823,0 0,-111.75457 -35.17455,0 0,143.11016 z"
         style="font-size:201px;font-variant:normal;font-weight:bold;font-stretch:normal;font-family:DINPro-Black;-inkscape-font-specification:DINPro-Black;fill:#4d8486;fill-opacity:1"
         id="path4031"
         inkscape:connector-curvature="0" />
      <path
         d="m 610.61586,725.80493 0,-31.35559 -62.1082,0 0,-25.12468 53.06331,0 0,-31.3556 -53.06331,0 0,-23.91869 62.1082,0 0,-31.3556 -97.28275,0 0,143.11016 z"
         style="font-size:201px;font-variant:normal;font-weight:bold;font-stretch:normal;font-family:DINPro-Black;-inkscape-font-specification:DINPro-Black;fill:#4d8486;fill-opacity:1"
         id="path4033"
         inkscape:connector-curvature="0" />
      <path
         d="m 739.34057,680.37952 -35.77754,0 c -1.00088,4.15398 -2.86848,7.70494 -5.60281,10.65286 -2.73447,2.94799 -6.96379,4.48897 -12.68796,4.62294 -3.22858,-0.0377 -6.01742,-0.61552 -8.36651,-1.7336 -2.34921,-1.11802 -4.18331,-2.55013 -5.50231,-4.29632 -1.63315,-1.68751 -2.93963,-4.84484 -3.91945,-9.47201 -0.97991,-4.62708 -1.4824,-13.26158 -1.50748,-25.90354 0.0251,-12.64181 0.52757,-21.27632 1.50748,-25.90354 0.97981,-4.62703 2.2863,-7.78436 3.91945,-9.472 1.31899,-1.74606 3.15309,-3.17817 5.5023,-4.29633 2.3491,-1.11793 5.13794,-1.6958 8.36652,-1.73359 5.72417,0.13411 9.95349,1.67509 12.68796,4.62294 2.73433,2.94806 4.60193,6.49901 5.60281,10.65286 l 35.77754,0 c -2.85177,-15.74887 -9.15806,-27.46534 -18.91889,-35.14942 -9.76102,-7.68383 -21.54448,-11.51115 -35.35041,-11.48198 -8.30377,0.0169 -15.71554,1.39037 -22.23535,4.12044 -6.51989,2.73035 -12.37393,6.7168 -17.56214,11.95935 -7.19824,7.6129 -11.49455,16.25578 -12.88896,25.92867 -1.39443,9.67309 -1.92205,19.92395 -1.58285,30.7526 -0.33919,10.8288 0.18842,21.07966 1.58285,30.75261 1.39441,9.67303 5.69072,18.31591 12.88896,25.92866 5.18822,5.24269 11.04226,9.22914 17.56215,11.95935 6.5198,2.73021 13.93157,4.10369 22.23534,4.12045 13.80593,0.0293 25.58939,-3.79802 35.35042,-11.48199 9.76083,-7.68394 16.06711,-19.40041 18.91888,-35.14941 z"
         style="font-size:201px;font-variant:normal;font-weight:bold;font-stretch:normal;font-family:DINPro-Black;-inkscape-font-specification:DINPro-Black;fill:#4d8486;fill-opacity:1"
         id="path4035"
         inkscape:connector-curvature="0" />
      <path
         d="m 854.99103,614.05037 0,-31.3556 -105.52364,0 0,31.3556 35.17455,0 0,111.75456 35.17454,0 0,-111.75456 z"
         style="font-size:201px;font-variant:normal;font-weight:bold;font-stretch:normal;font-family:DINPro-Black;-inkscape-font-specification:DINPro-Black;fill:#4d8486;fill-opacity:1"
         id="path4037"
         inkscape:connector-curvature="0" />
      <path
         d="m 980.00038,654.24985 c 0.33906,-10.82865 -0.18856,-21.07951 -1.58286,-30.7526 -1.39453,-9.67289 -5.69085,-18.31577 -12.88896,-25.92867 -5.14647,-5.24255 -10.93351,-9.22899 -17.36115,-11.95935 -6.42781,-2.73007 -13.97358,-4.10355 -22.63733,-4.12044 -8.66389,0.0169 -16.20966,1.39037 -22.63734,4.12044 -6.42776,2.73035 -12.21481,6.7168 -17.36115,11.95935 -7.19824,7.6129 -11.49455,16.25578 -12.88896,25.92867 -1.39443,9.67309 -1.92205,19.92395 -1.58285,30.7526 -0.33919,10.8288 0.18843,21.07966 1.58285,30.75261 1.39441,9.67303 5.69072,18.31591 12.88896,25.92866 5.14634,5.24269 10.93339,9.22914 17.36115,11.95935 6.42768,2.73021 13.97345,4.10369 22.63734,4.12045 8.66375,-0.0168 16.20952,-1.39024 22.63733,-4.12045 6.42763,-2.73022 12.21468,-6.71666 17.36115,-11.95935 7.19811,-7.61275 11.49443,-16.25563 12.88896,-25.92866 1.3943,-9.67295 1.92192,-19.92381 1.58286,-30.75261 z m -35.17455,0 c -0.0168,12.62521 -0.48583,21.19272 -1.40698,25.70255 -0.92132,4.50992 -2.19431,7.60025 -3.81895,9.271 -1.3275,1.76295 -3.1951,3.26205 -5.60281,4.49732 -2.40785,1.23532 -5.23019,1.88019 -8.46701,1.9346 -3.23696,-0.0544 -6.05929,-0.69927 -8.46702,-1.9346 -2.40783,-1.23527 -4.27543,-2.73437 -5.6028,-4.49732 -1.62478,-1.67075 -2.89776,-4.76109 -3.81895,-9.27101 -0.92129,-4.50983 -1.39028,-13.07733 -1.40698,-25.70254 0.0167,-12.63344 0.4857,-21.23445 1.40698,-25.80304 0.92119,-4.56841 2.19417,-7.69224 3.81895,-9.3715 1.32737,-1.75444 3.19496,-3.22004 5.6028,-4.39682 2.40772,-1.17656 5.23006,-1.78793 8.46702,-1.8341 3.23683,0.0462 6.05916,0.65754 8.46701,1.8341 2.40771,1.17678 4.27531,2.64239 5.60281,4.39682 1.62465,1.67926 2.89763,4.8031 3.81895,9.3715 0.92115,4.5686 1.39014,13.16961 1.40698,25.80304 z"
         style="font-size:201px;font-variant:normal;font-weight:bold;font-stretch:normal;font-family:DINPro-Black;-inkscape-font-specification:DINPro-Black;fill:#4d8486;fill-opacity:1"
         id="path4039"
         inkscape:connector-curvature="0" />
      <path
         d="m 1117.6099,725.80493 -30.9536,-59.69623 c 5.8958,-2.80134 11.1887,-7.29866 15.8788,-13.49196 4.6898,-6.19315 7.1688,-14.15766 7.4369,-23.89356 -0.05,-12.2063 -4.2211,-22.81728 -12.5121,-31.83297 -8.2913,-9.01543 -20.4013,-13.74724 -36.3303,-14.19544 l -56.6813,0 0,143.11016 35.1746,0 0,-53.26431 11.8588,0 25.3257,53.26431 z m -42.8125,-97.08175 c -0.034,3.85673 -1.3735,7.19831 -4.0199,10.02475 -2.6466,2.82661 -6.3985,4.30896 -11.2559,4.44707 l -19.8987,0 0,-28.94363 19.8987,0 c 4.8574,0.1383 8.6093,1.62065 11.2559,4.44707 2.6464,2.82663 3.9864,6.1682 4.0199,10.02474 z"
         style="font-size:201px;font-variant:normal;font-weight:bold;font-stretch:normal;font-family:DINPro-Black;-inkscape-font-specification:DINPro-Black;fill:#4d8486;fill-opacity:1"
         id="path4041"
         inkscape:connector-curvature="0" />
    </g>
    <g
       style="font-size:40px;font-style:normal;font-weight:normal;line-height:125%;letter-spacing:0px;word-spacing:0px;fill:#4d8486;fill-opacity:1;stroke:none;font-family:Sans"
       id="text3939-8"
       transform="matrix(0.91867296,0,0,0.8879793,10.734416,431.4313)">
      <path
         style="font-size:201px;font-variant:normal;font-weight:bold;font-stretch:normal;fill:#2a4b4d;fill-opacity:1;font-family:DINPro-Black;-inkscape-font-specification:DINPro-Black"
         d="m 79.354903,-81.012617 c -10.161869,0.34945 -21.021559,-0.12692 -30.78125,0.46875 -1.030233,6.81981 0.60455,13.92122 -0.21875,20.84375 0,37.96875 0,75.9375 0,113.90625 9.0625,0 18.125,0 27.1875,0 0,-17.90625 0,-35.8125 0,-53.71875041 6.376947,2.48013001 15.391236,-3.20289999 19.90625,3.65625001 7.927087,16.6875004 15.854167,33.3750004 23.781257,50.0625004 10.58333,0 21.16667,0 31.75,0 -9.97162,-19.20684 -19.92014,-38.42572 -29.90625,-57.6250004 17.55298,-6.07125 28.42684,-25.9994596 24.03125,-43.9999996 -3.34835,-19.29002 -22.04794,-33.95649 -41.49786,-33.15918 -8.072717,-0.50159 -16.167182,-0.50304 -24.252147,-0.43457 z m 14.75,23.46875 c 9.998647,-1.03598 22.146037,3.49902 24.156257,14.40625 2.60585,10.7179 -5.82822,22.84309 -17.21876,22.53125 -8.483914,0.78528 -17.004031,-0.27992 -25.499997,0.25 0,-12.33333 0,-24.66667 0,-37 6.202191,0.12992 12.358666,0.34221 18.5625,-0.1875 z"
         id="path4017-8"
         inkscape:connector-curvature="0" />
      <path
         style="font-size:201px;font-variant:normal;font-weight:bold;font-stretch:normal;fill:#2a4b4d;fill-opacity:1;font-family:DINPro-Black;-inkscape-font-specification:DINPro-Black"
         d="m 225.44866,-82.106367 c -25.13175,-1.79712 -49.95842,19.49751 -49.74846,45.05651 -1.26171,20.3898 -2.32356,41.4067496 2.46721,61.34974 6.98638,20.5279 29.18944,33.10355 50.4375,31.15625 23.72466,-0.18064 46.20478,-20.25092 46.26316,-44.39616 1.55495,-20.2053204 2.12406,-41.10154 -1.95066,-60.88509 -6.19695,-19.76685 -26.77116,-33.36179 -47.46875,-32.28125 z m 0.8125,23.3125 c 12.26678,-0.13608 22.04084,11.32625 21.40821,23.33916 1.45467,17.56867 1.9378,35.60946959 -1.43946,52.94209 -4.43658,14.36733 -24.70871,19.49177 -35.5625,9.21875 -10.1781,-8.99478 -7.59664,-23.9763004 -8.65625,-36.1875004 0.17644,-12.5645396 -0.654,-25.8143996 3.65625,-37.7187496 3.71406,-7.67421 12.19981,-12.01406 20.59375,-11.59375 z"
         id="path4019-2"
         inkscape:connector-curvature="0" />
      <path
         style="font-size:201px;font-variant:normal;font-weight:bold;font-stretch:normal;fill:#2a4b4d;fill-opacity:1;font-family:DINPro-Black;-inkscape-font-specification:DINPro-Black"
         d="m 311.16741,-81.387617 c -5.71598,0.0594 -2.34935,7.27581 -2.90625,10.46875 0,41.69792 0,83.39583 0,125.09375 23.67282,-0.67168 47.56138,1.60675 71.09375,-1.34375 15.1193,-3.29741 27.36657,-16.97979 27.625,-32.625 1.86224,-13.1286904 -4.642,-27.7953304 -17.28125,-32.71875 -3.55677,-1.84903 -0.81788,-5.82281 2.15625,-6.375 18.57608,-12.04182 17.13532,-42.06932 -0.375,-54.34375 -13.20114,-9.84093 -30.74555,-7.20683 -46.1875,-7.8125 -11.35845,0.0245 -22.87896,0.80504 -34.125,-0.34375 z m 45.8125,23.78125 c 8.0801,-0.39746 18.39551,2.03113 20.4375,11.09375 2.91467,9.20299 -3.75013,20.84999 -14.09375,20.28125 -9.29289,0.64758 -18.60531,-0.13451 -27.90625,0.21875 0,-10.44792 0,-20.89583 0,-31.34375 7.20215,0.27721 14.35449,0.14725 21.5625,-0.25 z m 0.21875,54.9062496 c 8.18087,-0.37699 18.85603,1.12454 21.6875,10.125 4.18954,9.9793704 -2.88926,24.0483604 -14.71875,23.0937504 -9.57916,0.42913 -19.16729,-0.0861 -28.75,0.15625 0,-11.05208 0,-22.1041704 0,-33.1562504 7.27221,0.258 14.51107,0.10725 21.78125,-0.21875 z"
         id="path4021-4"
         inkscape:connector-curvature="0" />
      <path
         style="font-size:201px;font-variant:normal;font-weight:bold;font-stretch:normal;fill:#2a4b4d;fill-opacity:1;font-family:DINPro-Black;-inkscape-font-specification:DINPro-Black"
         d="m 486.79241,-82.106367 c -23.77207,-2.11989 -47.92972,15.79917 -50.78125,39.65625 -1.58729,22.03873 -3.07007,44.8121496 1.9375,66.40625 6.74542,20.69651 29.22079,33.43919 50.53125,31.5 23.24969,-0.18494 45.71623,-19.56961 46.18653,-43.49228 1.75702,-20.1017804 2.05255,-40.67475 -1.49903,-60.57022 -5.58668,-19.81434 -25.77658,-34.10285 -46.375,-33.5 z m -0.625,23.3125 c 12.18722,-0.14237 21.942,11.2709 21.37882,23.21398 1.50178,17.39557 1.8375,35.27457959 -1.25382,52.44227 -3.84478,13.88549 -22.39795,19.89548 -33.84375,11.25 -10.1436,-6.42622 -9.8033,-19.4171704 -10.32974,-30.0613204 -0.31224,-14.5705696 -1.03962,-29.6877296 2.76724,-43.8136796 3.39661,-8.43086 12.27613,-13.55806 21.28125,-13.03125 z"
         id="path4023-5"
         inkscape:connector-curvature="0" />
      <path
         style="font-size:201px;font-variant:normal;font-weight:bold;font-stretch:normal;fill:#2a4b4d;fill-opacity:1;font-family:DINPro-Black;-inkscape-font-specification:DINPro-Black"
         d="m 79.354903,170.23738 c -10.161869,0.34945 -21.021559,-0.12692 -30.78125,0.46875 -1.030233,6.81981 0.60455,13.92122 -0.21875,20.84375 0,37.96875 0,75.9375 0,113.90625 9.0625,0 18.125,0 27.1875,0 0,-17.90625 0,-35.8125 0,-53.71875 6.376947,2.48013 15.391236,-3.2029 19.90625,3.65625 7.927087,16.6875 15.854167,33.375 23.781257,50.0625 10.58333,0 21.16667,0 31.75,0 -9.97162,-19.20684 -19.92014,-38.42572 -29.90625,-57.625 17.55298,-6.07125 28.42684,-25.99946 24.03125,-44 -3.34835,-19.29002 -22.04794,-33.95649 -41.49786,-33.15918 -8.072717,-0.50159 -16.167182,-0.50304 -24.252147,-0.43457 z m 14.75,23.46875 c 9.998647,-1.03598 22.146037,3.49902 24.156257,14.40625 2.60585,10.7179 -5.82822,22.84309 -17.21876,22.53125 -8.483914,0.78528 -17.004031,-0.27992 -25.499997,0.25 0,-12.33333 0,-24.66667 0,-37 6.202191,0.12992 12.358666,0.34221 18.5625,-0.1875 z"
         id="path4025-5"
         inkscape:connector-curvature="0" />
      <path
         style="font-size:201px;font-variant:normal;font-weight:bold;font-stretch:normal;fill:#2a4b4d;fill-opacity:1;font-family:DINPro-Black;-inkscape-font-specification:DINPro-Black"
         d="m 179.47991,305.45613 c 29.76042,0 59.52083,0 89.28125,0 0,-7.79167 0,-15.58333 0,-23.375 -20.69792,0 -41.39583,0 -62.09375,0 0,-11.04167 0,-22.08333 0,-33.125 17.6875,0 35.375,0 53.0625,0 0,-7.78125 0,-15.5625 0,-23.34375 -17.6875,0 -35.375,0 -53.0625,0 0,-10.63542 0,-21.27083 0,-31.90625 20.69792,0 41.39583,0 62.09375,0 0,-7.79167 0,-15.58333 0,-23.375 -29.76042,0 -59.52083,0 -89.28125,0 0,45.04167 0,90.08333 0,135.125 z"
         id="path4027-1"
         inkscape:connector-curvature="0" />
      <path
         style="font-size:201px;font-variant:normal;font-weight:bold;font-stretch:normal;fill:#2a4b4d;fill-opacity:1;font-family:DINPro-Black;-inkscape-font-specification:DINPro-Black"
         d="m 301.57366,305.45613 c 9.0625,0 18.125,0 27.1875,0 0,-18.42708 0,-36.85417 0,-55.28125 17.6875,0 35.375,0 53.0625,0 0,-7.78125 0,-15.5625 0,-23.34375 -17.6875,0 -35.375,0 -53.0625,0 0,-11.04167 0,-22.08333 0,-33.125 20.69792,0 41.39583,0 62.09375,0 0,-7.79167 0,-15.58333 0,-23.375 -29.76042,0 -59.52083,0 -89.28125,0 0,45.04167 0,90.08333 0,135.125 z"
         id="path4029-7"
         inkscape:connector-curvature="0" />
      <path
         style="font-size:201px;font-variant:normal;font-weight:bold;font-stretch:normal;fill:#2a4b4d;fill-opacity:1;font-family:DINPro-Black;-inkscape-font-specification:DINPro-Black"
         d="m 421.32366,305.45613 c 29.08333,0 58.16667,0 87.25,0 0,-7.79167 0,-15.58333 0,-23.375 -20.03125,0 -40.0625,0 -60.09375,0 0,-37.25 0,-74.5 0,-111.75 -9.05208,0 -18.10417,0 -27.15625,0 0,45.04167 0,90.08333 0,135.125 z"
         id="path4031-1"
         inkscape:connector-curvature="0" />
      <path
         style="font-size:201px;font-variant:normal;font-weight:bold;font-stretch:normal;fill:#2a4b4d;fill-opacity:1;font-family:DINPro-Black;-inkscape-font-specification:DINPro-Black"
         d="m 537.13616,305.45613 c 29.76042,0 59.52083,0 89.28125,0 0,-7.79167 0,-15.58333 0,-23.375 -20.70833,0 -41.41667,0 -62.125,0 0,-11.04167 0,-22.08333 0,-33.125 17.6875,0 35.375,0 53.0625,0 0,-7.78125 0,-15.5625 0,-23.34375 -17.6875,0 -35.375,0 -53.0625,0 0,-10.63542 0,-21.27083 0,-31.90625 20.70833,0 41.41667,0 62.125,0 0,-7.79167 0,-15.58333 0,-23.375 -29.76042,0 -59.52083,0 -89.28125,0 0,45.04167 0,90.08333 0,135.125 z"
         id="path4033-1"
         inkscape:connector-curvature="0" />
      <path
         style="font-size:201px;font-variant:normal;font-weight:bold;font-stretch:normal;fill:#2a4b4d;fill-opacity:1;font-family:DINPro-Black;-inkscape-font-specification:DINPro-Black"
         d="m 702.01116,169.20613 c -24.24132,-0.13631 -47.04377,20.77116 -46.625,45.6875 -1.28966,19.91855 -2.07526,40.52465 2.28125,59.96875 6.60053,20.81807 29.47372,33.9217 50.9375,31.78125 20.35535,-0.4647 40.13156,-14.78455 44.65625,-35.125 3.37882,-6.13232 -6.1577,-2.49927 -9.56235,-3.50766 -5.73413,0.17754 -12.104,-0.48115 -17.4689,0.44516 -3.54901,11.95537 -17.70487,17.92076 -29.0625,13.65625 -9.92627,-3.32155 -14.77562,-13.9396 -14.56858,-23.82679 -1.30261,-17.08895 -1.73385,-34.68457 1.72483,-51.48571 4.29651,-14.38621 24.06595,-18.89482 35.09375,-9.5 3.83129,2.53842 5.3174,7.15317 7.40625,10.6875 9.07022,-0.94476 18.25074,0.30983 27.40625,-0.375 -3.74867,-19.49839 -20.1634,-35.84324 -40.17508,-37.84462 -3.98034,-0.57577 -8.02644,-0.74107 -12.04367,-0.56163 z"
         id="path4035-5"
         inkscape:connector-curvature="0" />
      <path
         style="font-size:201px;font-variant:normal;font-weight:bold;font-stretch:normal;fill:#2a4b4d;fill-opacity:1;font-family:DINPro-Black;-inkscape-font-specification:DINPro-Black"
         d="m 773.26116,193.70613 c 11.72917,0 23.45833,0 35.1875,0 0,37.25 0,74.5 0,111.75 9.05208,0 18.10417,0 27.15625,0 0,-37.25 0,-74.5 0,-111.75 11.72917,0 23.45833,0 35.1875,0 0,-7.79167 0,-15.58333 0,-23.375 -32.51042,0 -65.02083,0 -97.53125,0 0,7.79167 0,15.58333 0,23.375 z"
         id="path4037-2"
         inkscape:connector-curvature="0" />
      <path
         style="font-size:201px;font-variant:normal;font-weight:bold;font-stretch:normal;fill:#2a4b4d;fill-opacity:1;font-family:DINPro-Black;-inkscape-font-specification:DINPro-Black"
         d="m 943.35491,169.17488 c -24.57695,-0.84979 -48.18352,20.49328 -47.71875,45.71875 -1.26893,19.87322 -2.09831,40.44843 2.28125,59.84375 6.50878,20.76095 28.80954,33.7543 50.09375,32 23.17885,0.0127 45.87452,-18.91562 46.70392,-42.8337 1.98165,-19.36041 1.64824,-39.19089 -0.70392,-58.5413 -4.82483,-22.14856 -27.22905,-37.895 -49.71875,-36.21875 l -0.9375,0.0312 z m 2.90625,23.28125 c 12.22041,-0.16035 21.94827,11.30773 21.37882,23.24523 1.47661,17.57194 1.92721,35.64201 -1.37882,52.97352 -4.41042,14.20064 -24.09714,19.42417 -35.09375,9.6875 -10.31254,-8.25256 -8.14474,-22.81011 -9.15625,-34.53125 0.1069,-12.74485 -0.59564,-26.03672 3,-38.3125 3.35346,-8.48056 12.26364,-13.59005 21.25,-13.0625 z"
         id="path4039-7"
         inkscape:connector-curvature="0" />
      <path
         style="font-size:201px;font-variant:normal;font-weight:bold;font-stretch:normal;fill:#2a4b4d;fill-opacity:1;font-family:DINPro-Black;-inkscape-font-specification:DINPro-Black"
         d="m 1059.2299,170.23738 c -10.1619,0.34945 -21.0216,-0.12692 -30.7813,0.46875 -1.0302,6.81981 0.6046,13.92122 -0.2187,20.84375 0,37.96875 0,75.9375 0,113.90625 9.0625,0 18.125,0 27.1875,0 0,-17.90625 0,-35.8125 0,-53.71875 6.3769,2.48013 15.3912,-3.2029 19.9062,3.65625 7.9271,16.6875 15.8542,33.375 23.7813,50.0625 10.5833,0 21.1667,0 31.75,0 -9.9716,-19.20684 -19.9201,-38.42572 -29.9063,-57.625 17.553,-6.07125 28.4269,-25.99946 24.0313,-44 -3.3484,-19.29002 -22.0479,-33.95649 -41.4979,-33.15918 -8.0727,-0.50159 -16.1671,-0.50304 -24.2521,-0.43457 z m 14.75,23.46875 c 10.0021,-1.04013 22.1502,3.50938 24.1563,14.40625 2.5807,10.72723 -5.8294,22.84854 -17.2188,22.53125 -8.4839,0.78528 -17.004,-0.27992 -25.5,0.25 0,-12.33333 0,-24.66667 0,-37 6.2022,0.12992 12.3587,0.34221 18.5625,-0.1875 z"
         id="path4041-6"
         inkscape:connector-curvature="0" />
      <path
         style="font-size:201px;font-style:normal;font-variant:normal;font-weight:bold;font-stretch:normal;line-height:125%;letter-spacing:0px;word-spacing:0px;fill:#c9cccc;fill-opacity:1;stroke:none;font-family:DINPro-Black;-inkscape-font-specification:DINPro-Black"
         d="m 82.957597,-79.05602 c -9.673885,0.32515 -19.361041,-0.0593 -29.03125,0.375 0.07877,43.57061 -0.113826,87.2333102 -0.03125,130.84375 7.729167,0 15.458333,0 23.1875,0 0,-18.17708 0,-36.35417 0,-54.5312498 7.26534,4.10494 17.72656,-2.87276 23.312503,4.96875 8.0191,16.4210598 15.72507,33.0589098 23.625,49.5624998 9.07292,0 18.14583,0 27.21875,0 -9.82259,-18.9204 -19.63886,-37.83267 -29.46875,-56.7499998 19.62665,-5.27814 31.02686,-28.6281202 23.625,-47.5312502 -5.54781,-17.15586 -23.57533,-28.01664 -41.375,-26.65625 -7.015893,-0.34546 -14.040213,-0.34644 -21.062503,-0.28125 z m 17.562503,19.3125 c 11.33356,-0.45922 23.64506,7.41815 23.75,19.59375 0.74337,11.5406 -9.40761,22.56559 -21.15625,21.625 -8.669473,0.58647 -17.365843,-0.50496 -26.031253,0.25 0,-13.71875 0,-27.4375 0,-41.15625 7.82569,0.23709 15.6318,0.30467 23.437503,-0.3125 z"
         id="path4017-8-1"
         inkscape:connector-curvature="0" />
      <path
         style="font-size:201px;font-style:normal;font-variant:normal;font-weight:bold;font-stretch:normal;line-height:125%;letter-spacing:0px;word-spacing:0px;fill:#c9cccc;fill-opacity:1;stroke:none;font-family:DINPro-Black;-inkscape-font-specification:DINPro-Black"
         d="m 224.3951,-80.21227 c -23.18591,0.80276 -44.38325,21.58211 -43.27082,45.24672 -0.9391,20.73207 -2.77621,42.2962102 3.89582,62.15953 8.585,19.12266 31.11333,29.12723 51.40625,25.96875 21.78685,-2.32189 40.9362,-21.95317 40.14958,-44.3068998 1.11953,-20.4959202 2.56966,-41.7808802 -3.30583,-61.6306002 -7.67476,-18.50617 -28.23903,-29.2243 -47.8125,-27.46875 l -0.99957,0.0294 -0.0629,0.002 z m 3.8125,19.34375 c 14.21723,-1.16542 26.23493,12.52238 25.08789,26.33988 1.23216,18.18714 2.31983,37.0232402 -2.43164,54.75387 -6.66201,15.86105 -31.35152,18.87313 -41.1875,4.46875 -7.78733,-11.36443 -5.22796,-25.9704598 -6.09375,-38.96875 0.42635,-12.5753 -0.9232,-26.60592 6.15625,-37.59375 4.39003,-5.63313 11.3951,-8.85554 18.46875,-9 z"
         id="path4019-2-4"
         inkscape:connector-curvature="0" />
      <path
         style="font-size:201px;font-style:normal;font-variant:normal;font-weight:bold;font-stretch:normal;line-height:125%;letter-spacing:0px;word-spacing:0px;fill:#c9cccc;fill-opacity:1;stroke:none;font-family:DINPro-Black;-inkscape-font-specification:DINPro-Black"
         d="m 314.3326,-79.39977 c -2.67389,1.4527 0.3239,6.01639 -0.53125,8.625 0.12507,40.88535 -0.25009,82.27092 0.1875,122.84375 23.67221,-0.71286 47.69309,2.19745 71.125,-1.9375 14.3743,-4.17544 24.50484,-18.84243 23.71875,-33.78125 0.4839,-11.8381598 -6.53781,-23.5510098 -17.625,-27.875 -3.94075,-3.34048 -0.005,-8.74292 3.96875,-9.65625 18.48039,-13.05179 13.76458,-45.30688 -6.84375,-53.71875 -15.07353,-6.34172 -32.01549,-3.49757 -48,-4.0625 -8.6657,0.2312 -17.36386,0.30908 -26,-0.4375 z m 46.9375,19.71875 c 9.43121,-0.65259 21.0238,4.03304 22.09375,14.59375 2.29753,10.71108 -6.95918,22.30994 -18.15625,20.90625 -9.4108,0.49411 -18.83718,-0.29079 -28.25,0.1875 0,-11.82292 0,-23.64583 0,-35.46875 8.10413,0.35326 16.21514,0.23898 24.3125,-0.21875 z m 1.03125,54.9062502 c 9.52696,-0.68605 21.11398,3.4833 22.84375,14.0625 2.99277,11.2433598 -6.22375,24.9031898 -18.56173,23.2266898 -9.8718,0.3925 -19.75186,-0.15195 -29.62577,0.14831 0,-12.41667 0,-24.8333298 0,-37.2499998 8.44669,0.38163 16.90068,0.14036 25.34375,-0.1875 z"
         id="path4021-4-2"
         inkscape:connector-curvature="0" />
      <path
         style="font-size:201px;font-style:normal;font-variant:normal;font-weight:bold;font-stretch:normal;line-height:125%;letter-spacing:0px;word-spacing:0px;fill:#c9cccc;fill-opacity:1;stroke:none;font-family:DINPro-Black;-inkscape-font-specification:DINPro-Black"
         d="m 484.8951,-80.27477 c -23.35351,0.68854 -44.84289,20.97622 -43.82754,45.05565 -1.14311,20.67398 -2.65839,42.2618002 3.70254,62.1631 9.06993,20.43932 33.29992,30.05478 54.5,25.78125 20.65806,-3.68284 37.95132,-22.65168 37.18664,-43.9583898 1.28952,-20.0608202 2.29766,-40.8546002 -2.84289,-60.3541102 -7.17004,-18.9105 -27.83063,-30.31028 -47.71875,-28.71875 l -0.99951,0.0312 -4.9e-4,2e-5 z m 3.09375,19.40625 c 14.15223,-1.22785 26.23949,12.33924 25.18164,26.12113 1.20703,18.20693 2.34416,37.1820702 -2.40039,54.87887 -6.19468,14.77647 -28.11444,18.80871 -39.15625,7 -10.10336,-10.56183 -7.10808,-26.76757983 -8.1875,-40.09375 0.26336,-12.34078 -0.59126,-25.55896 4.84375,-36.90625 4.09768,-6.72082 11.86941,-10.88865 19.71875,-11 z"
         id="path4023-5-3"
         inkscape:connector-curvature="0" />
      <path
         style="font-size:201px;font-style:normal;font-variant:normal;font-weight:bold;font-stretch:normal;line-height:125%;letter-spacing:0px;word-spacing:0px;fill:#c9cccc;fill-opacity:1;stroke:none;font-family:DINPro-Black;-inkscape-font-specification:DINPro-Black"
         d="m 82.957597,172.19398 c -9.673885,0.32515 -19.361041,-0.0593 -29.03125,0.375 0.07877,43.57061 -0.113826,87.23331 -0.03125,130.84375 7.729167,0 15.458333,0 23.1875,0 0,-18.17708 0,-36.35417 0,-54.53125 7.26534,4.10494 17.72656,-2.87276 23.312503,4.96875 8.0191,16.42106 15.72507,33.05891 23.625,49.5625 9.07292,0 18.14583,0 27.21875,0 -9.82259,-18.9204 -19.63886,-37.83267 -29.46875,-56.75 19.62665,-5.27814 31.02686,-28.62812 23.625,-47.53125 -5.54781,-17.15586 -23.57533,-28.01664 -41.375,-26.65625 -7.015893,-0.34546 -14.040213,-0.34644 -21.062503,-0.28125 z m 17.562503,19.3125 c 11.33356,-0.45922 23.64506,7.41815 23.75,19.59375 0.74337,11.5406 -9.40761,22.56559 -21.15625,21.625 -8.669473,0.58647 -17.365843,-0.50496 -26.031253,0.25 0,-13.71875 0,-27.4375 0,-41.15625 7.82569,0.23709 15.6318,0.30467 23.437503,-0.3125 z"
         id="path4025-5-2"
         inkscape:connector-curvature="0" />
      <path
         style="font-size:201px;font-style:normal;font-variant:normal;font-weight:bold;font-stretch:normal;line-height:125%;letter-spacing:0px;word-spacing:0px;fill:#c9cccc;fill-opacity:1;stroke:none;font-family:DINPro-Black;-inkscape-font-specification:DINPro-Black"
         d="m 185.0201,303.41273 c 28.42708,0 56.85417,0 85.28125,0 0,-6.45833 0,-12.91667 0,-19.375 -20.69792,0 -41.39583,0 -62.09375,0 0,-12.375 0,-24.75 0,-37.125 17.6875,0 35.375,0 53.0625,0 0,-6.44792 0,-12.89583 0,-19.34375 -17.6875,0 -35.375,0 -53.0625,0 0,-11.96875 0,-23.9375 0,-35.90625 20.69792,0 41.39583,0 62.09375,0 0,-6.45833 0,-12.91667 0,-19.375 -28.42708,0 -56.85417,0 -85.28125,0 0,43.70833 0,87.41667 0,131.125 z"
         id="path4027-1-2"
         inkscape:connector-curvature="0" />
      <path
         style="font-size:201px;font-style:normal;font-variant:normal;font-weight:bold;font-stretch:normal;line-height:125%;letter-spacing:0px;word-spacing:0px;fill:#c9cccc;fill-opacity:1;stroke:none;font-family:DINPro-Black;-inkscape-font-specification:DINPro-Black"
         d="m 307.11385,303.41273 c 7.72917,0 15.45833,0 23.1875,0 0,-18.42708 0,-36.85417 0,-55.28125 17.6875,0 35.375,0 53.0625,0 0,-6.44792 0,-12.89583 0,-19.34375 -17.6875,0 -35.375,0 -53.0625,0 0,-12.375 0,-24.75 0,-37.125 20.69792,0 41.39583,0 62.09375,0 0,-6.45833 0,-12.91667 0,-19.375 -28.42708,0 -56.85417,0 -85.28125,0 0,43.70833 0,87.41667 0,131.125 z"
         id="path4029-7-1"
         inkscape:connector-curvature="0" />
      <path
         style="font-size:201px;font-style:normal;font-variant:normal;font-weight:bold;font-stretch:normal;line-height:125%;letter-spacing:0px;word-spacing:0px;fill:#c9cccc;fill-opacity:1;stroke:none;font-family:DINPro-Black;-inkscape-font-specification:DINPro-Black"
         d="m 426.86385,303.41273 c 27.75,0 55.5,0 83.25,0 0,-6.45833 0,-12.91667 0,-19.375 -20.03125,0 -40.0625,0 -60.09375,0 0,-37.25 0,-74.5 0,-111.75 -7.71875,0 -15.4375,0 -23.15625,0 0,43.70833 0,87.41667 0,131.125 z"
         id="path4031-1-6"
         inkscape:connector-curvature="0" />
      <path
         style="font-size:201px;font-style:normal;font-variant:normal;font-weight:bold;font-stretch:normal;line-height:125%;letter-spacing:0px;word-spacing:0px;fill:#c9cccc;fill-opacity:1;stroke:none;font-family:DINPro-Black;-inkscape-font-specification:DINPro-Black"
         d="m 542.67635,303.41273 c 28.42708,0 56.85417,0 85.28125,0 0,-6.45833 0,-12.91667 0,-19.375 -20.70833,0 -41.41667,0 -62.125,0 0,-12.375 0,-24.75 0,-37.125 17.6875,0 35.375,0 53.0625,0 0,-6.44792 0,-12.89583 0,-19.34375 -17.6875,0 -35.375,0 -53.0625,0 0,-11.96875 0,-23.9375 0,-35.90625 20.70833,0 41.41667,0 62.125,0 0,-6.45833 0,-12.91667 0,-19.375 -28.42708,0 -56.85417,0 -85.28125,0 0,43.70833 0,87.41667 0,131.125 z"
         id="path4033-1-8"
         inkscape:connector-curvature="0" />
      <path
         style="font-size:201px;font-style:normal;font-variant:normal;font-weight:bold;font-stretch:normal;line-height:125%;letter-spacing:0px;word-spacing:0px;fill:#c9cccc;fill-opacity:1;stroke:none;font-family:DINPro-Black;-inkscape-font-specification:DINPro-Black"
         d="m 705.6451,171.16273 c -24.04125,-0.32382 -46.21929,21.38395 -44.83522,45.80911 -0.92861,20.25544 -2.54356,41.35423 3.67897,60.87839 8.75845,20.03348 32.1732,30.10071 53.09375,26.28125 17.91352,-2.43037 34.16635,-16.65273 37.6875,-34.3125 -7.96719,0.76683 -15.98909,-0.46897 -23.96875,0.40625 -5.5688,16.1019 -29.61543,20.61984 -40.53125,7.46875 -8.96652,-10.25984 -6.40137,-24.96182 -7.53883,-37.56212 0.10772,-12.51589 -0.20086,-25.64962 4.13258,-37.50038 7.76197,-15.55032 33.09373,-16.55525 41.71875,-1.375 1.30216,2.52922 2.06211,5.83103 5.62434,4.40116 6.68926,-0.50899 14.55057,0.79829 20.53191,-0.27616 -4.70474,-19.59252 -23.51326,-34.54425 -43.78125,-34.21875 -1.93428,-0.10088 -3.8782,-0.0961 -5.8125,0 z"
         id="path4035-5-5"
         inkscape:connector-curvature="0" />
      <path
         style="font-size:201px;font-style:normal;font-variant:normal;font-weight:bold;font-stretch:normal;line-height:125%;letter-spacing:0px;word-spacing:0px;fill:#c9cccc;fill-opacity:1;stroke:none;font-family:DINPro-Black;-inkscape-font-specification:DINPro-Black"
         d="m 778.80135,191.66273 c 11.72917,0 23.45833,0 35.1875,0 0,37.25 0,74.5 0,111.75 7.71875,0 15.4375,0 23.15625,0 0,-37.25 0,-74.5 0,-111.75 11.72917,0 23.45833,0 35.1875,0 0,-6.45833 0,-12.91667 0,-19.375 -31.17708,0 -62.35417,0 -93.53125,0 0,6.45833 0,12.91667 0,19.375 z"
         id="path4037-2-7"
         inkscape:connector-curvature="0" />
      <path
         style="font-size:201px;font-style:normal;font-variant:normal;font-weight:bold;font-stretch:normal;line-height:125%;letter-spacing:0px;word-spacing:0px;fill:#c9cccc;fill-opacity:1;stroke:none;font-family:DINPro-Black;-inkscape-font-specification:DINPro-Black"
         d="m 950.0201,171.00648 c -20.98307,-1.55334 -41.90933,12.59916 -47.4375,32.9375 -2.63808,13.13304 -1.9924,26.77059 -2.3893,40.12486 0.69864,16.01965 0.49216,34.30862 12.92055,46.21889 19.2606,20.40631 56.4021,19.38657 73.90625,-2.78125 11.0357,-12.48008 9.7087,-30.07447 10.5,-45.59375 -0.2801,-13.64066 0.2961,-27.80952 -3.3125,-41 -6.2979,-17.99586 -25.2047,-30.45451 -44.1875,-29.90625 z m -1.9375,19.375 c 14.15529,-1.24635 26.27369,12.3597 25.17997,26.18378 1.20862,18.20205 2.35679,37.06441 -2.36747,54.81622 -6.50376,15.61436 -30.45851,18.92492 -40.6875,5.28125 -8.28579,-10.99525 -5.79296,-25.78744 -6.63149,-38.68748 0.39342,-12.46301 -0.90473,-26.07482 5.28774,-37.34377 4.19933,-6.29382 11.66504,-10.1287 19.21875,-10.25 z"
         id="path4039-7-6"
         inkscape:connector-curvature="0" />
      <path
         style="font-size:201px;font-style:normal;font-variant:normal;font-weight:bold;font-stretch:normal;line-height:125%;letter-spacing:0px;word-spacing:0px;fill:#c9cccc;fill-opacity:1;stroke:none;font-family:DINPro-Black;-inkscape-font-specification:DINPro-Black"
         d="m 1062.8326,172.19398 c -9.6739,0.32515 -19.361,-0.0593 -29.0312,0.375 0.079,43.57061 -0.1139,87.23331 -0.031,130.84375 7.7292,0 15.4583,0 23.1875,0 0,-18.17708 0,-36.35417 0,-54.53125 7.2653,4.10494 17.7266,-2.87276 23.3125,4.96875 8.0191,16.42106 15.7251,33.05891 23.625,49.5625 9.0729,0 18.1458,0 27.2187,0 -9.8225,-18.9204 -19.6388,-37.83267 -29.4687,-56.75 19.6266,-5.27814 31.0269,-28.62812 23.625,-47.53125 -5.5478,-17.15586 -23.5753,-28.01664 -41.375,-26.65625 -7.0159,-0.34546 -14.0402,-0.34644 -21.0625,-0.28125 z m 17.5625,19.3125 c 11.2849,-0.44946 23.6387,7.37186 23.7187,19.53125 0.8883,11.98186 -10.0016,23.01979 -22.1232,21.74622 -8.3398,0.44625 -16.6999,-0.53385 -25.033,0.19128 0,-13.71875 0,-27.4375 0,-41.15625 7.8257,0.23709 15.6318,0.30467 23.4375,-0.3125 z"
         id="path4041-6-1"
         inkscape:connector-curvature="0" />
    </g>
  </g>
</svg>
