<?xml version="1.0" encoding="UTF-8" standalone="no"?>
<!-- Created with Inkscape (http://www.inkscape.org/) -->

<svg
   xmlns:dc="http://purl.org/dc/elements/1.1/"
   xmlns:cc="http://creativecommons.org/ns#"
   xmlns:rdf="http://www.w3.org/1999/02/22-rdf-syntax-ns#"
   xmlns:svg="http://www.w3.org/2000/svg"
   xmlns="http://www.w3.org/2000/svg"
   xmlns:sodipodi="http://sodipodi.sourceforge.net/DTD/sodipodi-0.dtd"
   xmlns:inkscape="http://www.inkscape.org/namespaces/inkscape"
   width="1080"
   height="900"
   id="svg2"
   version="1.1"
   inkscape:version="0.48.4 r9939"
   sodipodi:docname="TitleImage.svg"
   inkscape:export-filename="C:\Users\Archerofyail\Git Repos\RoboReflector\RoboReflector\Assets\Images\TitleImage.png"
   inkscape:export-xdpi="71.699997"
   inkscape:export-ydpi="71.699997">
  <defs
     id="defs4" />
  <sodipodi:namedview
     id="base"
     pagecolor="#ffffff"
     bordercolor="#666666"
     borderopacity="1.0"
     inkscape:pageopacity="0.0"
     inkscape:pageshadow="2"
     inkscape:zoom="0.7"
     inkscape:cx="489.95762"
     inkscape:cy="620.2925"
     inkscape:document-units="px"
     inkscape:current-layer="layer2"
     showgrid="false"
     inkscape:window-width="1309"
     inkscape:window-height="779"
     inkscape:window-x="1973"
     inkscape:window-y="120"
     inkscape:window-maximized="0"
     showguides="true"
     inkscape:guide-bbox="true" />
  <metadata
     id="metadata7">
    <rdf:RDF>
      <cc:Work
         rdf:about="">
        <dc:format>image/svg+xml</dc:format>
        <dc:type
           rdf:resource="http://purl.org/dc/dcmitype/StillImage" />
        <dc:title></dc:title>
      </cc:Work>
    </rdf:RDF>
  </metadata>
  <g
     inkscape:label="Layer 1"
     inkscape:groupmode="layer"
     id="layer1"
     transform="translate(0,-152.36218)">
    <g
       style="font-size:40px;font-style:normal;font-weight:normal;line-height:125%;letter-spacing:0px;word-spacing:0px;fill:#4d8486;fill-opacity:1;stroke:none;font-family:Sans"
       id="text3939"
       transform="matrix(0.91867296,0,0,0.8879793,-7.4518425,29.808675)">
      <path
         style="font-size:201px;font-variant:normal;font-weight:bold;font-stretch:normal;fill:#4d8486;fill-opacity:1;font-family:DINPro-Black;-inkscape-font-specification:DINPro-Black"
         d="m 25.4375,327.21875 c -5.972236,-0.0496 -5.284709,7.13887 -4.875,11.21875 0,46.70833 0,93.41667 0,140.125 14.395833,0 28.791667,0 43.1875,0 0.12558,-17.83275 -0.250776,-36.16744 0.1875,-53.6875 6.552877,-1.27187 8.255199,6.60628 10.164355,11.02129 6.786139,14.21837 13.512986,28.46566 20.335645,42.66621 16.625,0 33.25,0 49.875,0 -10.70623,-20.68897 -21.44367,-41.36178 -32.1875,-62.03125 18.54825,-10.69434 26.60015,-34.82889 19.59375,-54.84375 C 125.59283,342.21676 106.49585,327.95682 86,327.84375 c -20.166141,-1.4574 -40.435446,0.50994 -60.5625,-0.625 z m 41.875,39.375 c 6.966438,1.46024 16.103537,-2.31424 21.1875,4.3125 5.922482,6.27673 0.601516,17.06323 -7.78125,16.96875 -5.527617,0.23895 -11.712478,0.3399 -16.9375,-0.34375 -0.944632,-5.65199 1.265116,-11.54757 -0.5625,-17.1875 -0.369805,-2.55222 1.800321,-3.95687 4.09375,-3.75 z"
         id="path4017"
         inkscape:connector-curvature="0" />
      <path
         style="font-size:201px;font-variant:normal;font-weight:bold;font-stretch:normal;fill:#4d8486;fill-opacity:1;font-family:DINPro-Black;-inkscape-font-specification:DINPro-Black"
         d="m 203.71875,326.21875 c -28.08793,-0.80583 -55.12814,22.78964 -55.7069,51.39413 -1.44245,21.45113 -2.46836,43.55513 2.42565,64.57462 7.44344,23.59692 32.26668,39.21459 56.8125,37.6875 26.57389,0.27424 52.63871,-19.9467 55.28125,-47.03125 2.64084,-18.65208 1.65198,-37.76676 0.625,-56.46875 -1.56725,-20.13849 -14.98221,-38.50393 -33.75,-45.78125 -8.10386,-3.29793 -16.92791,-4.69182 -25.6875,-4.375 z m 2.59375,39.34375 c 8.95207,-0.18324 14.50737,8.99352 13.68429,17.18339 1.16335,16.5285 1.92912,33.63828 -1.59054,49.81661 -4.64341,10.63073 -22.7237,10.52101 -26,-1.25 -3.20587,-13.5248 -1.63639,-27.77549 -2.03125,-41.625 0.7656,-7.25965 0.19144,-16.70303 6.59375,-21.59375 2.71449,-1.87038 6.05408,-2.59083 9.34375,-2.53125 z"
         id="path4019"
         inkscape:connector-curvature="0" />
      <path
         style="font-size:201px;font-variant:normal;font-weight:bold;font-stretch:normal;fill:#4d8486;fill-opacity:1;font-family:DINPro-Black;-inkscape-font-specification:DINPro-Black"
         d="m 328.9375,327.3125 c -16.15643,0.4694 -32.30965,0.0317 -48.46875,0.125 0,50.38542 0,100.77083 0,151.15625 26.05213,-0.68762 52.25983,1.251 78.21875,-1.03125 18.55196,-3.08152 34.6906,-18.54327 36.1875,-37.71875 2.18067,-14.25031 -2.01797,-30.51678 -14.34375,-38.90625 19.56278,-16.54689 15.98255,-51.09102 -4.9375,-64.875 -13.35017,-9.76044 -30.86621,-8.51548 -46.65625,-8.75 z m -4.75,39.53125 c 7.35752,1.24068 15.53827,-1.60993 22.5,1.1875 6.20007,3.38131 4.04966,14.29025 -3.40625,14.15625 -6.23585,0.55543 -12.49329,-0.41896 -18.75,0.28125 -2.94753,-0.48865 0.36161,-4.55112 -0.625,-6.46875 0.40205,-2.41993 -2.03168,-7.68565 0.28125,-9.15625 z m 20.375,54.96875 c 9.08163,-0.11787 10.65771,14.82032 1.9375,16.8125 -7.48802,1.30805 -15.26509,-0.17152 -22.875,0.375 0.73784,-5.30382 -1.43267,-13.51601 1,-17.125 6.64402,-0.0516 13.29877,0.0972 19.9375,-0.0625 z"
         id="path4021"
         inkscape:connector-curvature="0" />
      <path
         style="font-size:201px;font-variant:normal;font-weight:bold;font-stretch:normal;fill:#4d8486;fill-opacity:1;font-family:DINPro-Black;-inkscape-font-specification:DINPro-Black"
         d="m 463.40625,326.25 c -28.40857,-0.78738 -55.3644,23.37283 -55.59289,52.23964 -1.29895,21.18519 -2.35555,42.98544 2.53039,63.76036 7.58964,23.98806 32.97661,39.48473 57.84375,37.59375 26.53188,-0.0668 52.22706,-20.93865 54.34375,-48.03125 2.43422,-19.26927 1.74527,-39.03135 0.16819,-58.36453 -2.86653,-23.76583 -23.09412,-43.53914 -46.68583,-46.48737 -4.14727,-0.64639 -8.39933,-0.84145 -12.60736,-0.7106 z m 2.8125,39.3125 c 8.92508,-0.16702 14.47644,9.05318 13.6743,17.24675 1.11932,16.47927 1.95073,33.5212 -1.58055,49.6595 -4.47372,10.55903 -22.23535,10.6624 -25.84375,-0.6875 -3.64859,-13.35123 -1.61696,-27.60176 -2.25,-41.34375 0.80544,-7.33373 0.0849,-16.54268 6.03125,-21.90625 2.82022,-2.19388 6.41735,-3.05741 9.96875,-2.96875 z"
         id="path4023"
         inkscape:connector-curvature="0" />
      <path
         style="font-size:201px;font-variant:normal;font-weight:bold;font-stretch:normal;fill:#4d8486;fill-opacity:1;font-family:DINPro-Black;-inkscape-font-specification:DINPro-Black"
         d="m 25.4375,578.46875 c -5.972236,-0.0497 -5.284709,7.13887 -4.875,11.21875 0,46.70833 0,93.41667 0,140.125 14.395833,0 28.791667,0 43.1875,0 0.12558,-17.83275 -0.250776,-36.16744 0.1875,-53.6875 6.552877,-1.27187 8.255199,6.60628 10.164355,11.02129 6.786139,14.21837 13.512986,28.46566 20.335645,42.66621 16.625,0 33.25,0 49.875,0 -10.70623,-20.68897 -21.44367,-41.36178 -32.1875,-62.03125 18.54825,-10.69434 26.60015,-34.82889 19.59375,-54.84375 C 125.59283,593.46676 106.49585,579.20682 86,579.09375 c -20.166141,-1.4574 -40.435446,0.50994 -60.5625,-0.625 z m 41.875,39.375 c 6.966438,1.46024 16.103537,-2.31424 21.1875,4.3125 5.922482,6.27673 0.601516,17.06323 -7.78125,16.96875 -5.527617,0.23895 -11.712478,0.3399 -16.9375,-0.34375 -0.944632,-5.65199 1.265116,-11.54757 -0.5625,-17.1875 -0.369805,-2.55222 1.800321,-3.95687 4.09375,-3.75 z"
         id="path4025"
         inkscape:connector-curvature="0" />
      <path
         style="font-size:201px;font-variant:normal;font-weight:bold;font-stretch:normal;fill:#4d8486;fill-opacity:1;font-family:DINPro-Black;-inkscape-font-specification:DINPro-Black"
         d="m 151.6875,580.6875 c 0,49.70833 0,99.41667 0,149.125 35.09375,0 70.1875,0 105.28125,0 0,-13.125 0,-26.25 0,-39.375 -20.69792,0 -41.39583,0 -62.09375,0 0.73784,-5.30382 -1.43267,-13.51601 1,-17.125 17.35417,0 34.70833,0 52.0625,0 0,-13.11458 0,-26.22917 0,-39.34375 -17.6875,0 -35.375,0 -53.0625,0 1.46815,-4.83393 -3.25659,-15.86075 3,-15.90625 19.69792,0 39.39583,0 59.09375,0 0,-13.125 0,-26.25 0,-39.375 -35.09375,0 -70.1875,0 -105.28125,0 l 0,1 0,1 z"
         id="path4027"
         inkscape:connector-curvature="0" />
      <path
         style="font-size:201px;font-variant:normal;font-weight:bold;font-stretch:normal;fill:#4d8486;fill-opacity:1;font-family:DINPro-Black;-inkscape-font-specification:DINPro-Black"
         d="m 273.78125,580.6875 c 0,49.70833 0,99.41667 0,149.125 14.39583,0 28.79167,0 43.1875,0 0,-18.42708 0,-36.85417 0,-55.28125 17.6875,0 35.375,0 53.0625,0 0,-13.11458 0,-26.22917 0,-39.34375 -17.6875,0 -35.375,0 -53.0625,0 0.73784,-5.30382 -1.43267,-13.51601 1,-17.125 20.36458,0 40.72917,0 61.09375,0 0,-13.125 0,-26.25 0,-39.375 -35.09375,0 -70.1875,0 -105.28125,0 l 0,1 0,1 z"
         id="path4029"
         inkscape:connector-curvature="0" />
      <path
         style="font-size:201px;font-variant:normal;font-weight:bold;font-stretch:normal;fill:#4d8486;fill-opacity:1;font-family:DINPro-Black;-inkscape-font-specification:DINPro-Black"
         d="m 393.53125,580.6875 c 0,49.70833 0,99.41667 0,149.125 34.41667,0 68.83333,0 103.25,0 0,-13.125 0,-26.25 0,-39.375 -20.03125,0 -40.0625,0 -60.09375,0 0,-37.25 0,-74.5 0,-111.75 -14.38542,0 -28.77083,0 -43.15625,0 l 0,1 0,1 z"
         id="path4031"
         inkscape:connector-curvature="0" />
      <path
         style="font-size:201px;font-variant:normal;font-weight:bold;font-stretch:normal;fill:#4d8486;fill-opacity:1;font-family:DINPro-Black;-inkscape-font-specification:DINPro-Black"
         d="m 509.34375,580.6875 c 0,49.70833 0,99.41667 0,149.125 35.09375,0 70.1875,0 105.28125,0 0,-13.125 0,-26.25 0,-39.375 -20.70833,0 -41.41667,0 -62.125,0 0.73784,-5.30382 -1.43267,-13.51601 1,-17.125 17.35417,0 34.70833,0 52.0625,0 0,-13.11458 0,-26.22917 0,-39.34375 -17.6875,0 -35.375,0 -53.0625,0 1.46815,-4.83393 -3.25659,-15.86075 3,-15.90625 19.70833,0 39.41667,0 59.125,0 0,-13.125 0,-26.25 0,-39.375 -35.09375,0 -70.1875,0 -105.28125,0 l 0,1 0,1 z"
         id="path4033"
         inkscape:connector-curvature="0" />
      <path
         style="font-size:201px;font-variant:normal;font-weight:bold;font-stretch:normal;fill:#4d8486;fill-opacity:1;font-family:DINPro-Black;-inkscape-font-specification:DINPro-Black"
         d="m 681.84375,577.5625 c -27.87332,0.0261 -53.99276,23.75792 -54.14555,52.0903 -1.43424,20.93154 -2.23439,42.43966 2.25027,63.0223 7.23711,24.61501 33.45786,40.50328 58.67653,38.35615 22.26442,-0.53503 44.26026,-14.82911 51.10898,-36.4646 2.0833,-5.88904 3.37055,-12.02314 4.42227,-18.19165 -14.61458,0 -29.22917,0 -43.84375,0 -0.35195,8.69741 -8.02425,17.24662 -17.28125,15.25 -8.68682,-0.7522 -12.85389,-10.19363 -12.24178,-18.05445 -1.21045,-16.17678 -1.74605,-32.86985 1.61678,-48.7268 4.39872,-11.17988 22.79644,-10.64913 26.25,1 1.52907,2.8619 0.57416,7.90569 5.34375,6.28125 13.35417,0 26.70833,0 40.0625,0 -2.05734,-21.7369 -14.82047,-43.6844 -36.25,-50.8125 -8.2452,-2.99688 -17.15956,-4.17454 -25.96875,-3.75 z"
         id="path4035"
         inkscape:connector-curvature="0" />
      <path
         style="font-size:201px;font-variant:normal;font-weight:bold;font-stretch:normal;fill:#4d8486;fill-opacity:1;font-family:DINPro-Black;-inkscape-font-specification:DINPro-Black"
         d="m 745.46875,580.6875 c 0,12.45833 0,24.91667 0,37.375 11.72917,0 23.45833,0 35.1875,0 0,37.25 0,74.5 0,111.75 14.38542,0 28.77083,0 43.15625,0 0,-37.25 0,-74.5 0,-111.75 11.72917,0 23.45833,0 35.1875,0 0,-13.125 0,-26.25 0,-39.375 -37.84375,0 -75.6875,0 -113.53125,0 l 0,1 0,1 z"
         id="path4037"
         inkscape:connector-curvature="0" />
      <path
         style="font-size:201px;font-variant:normal;font-weight:bold;font-stretch:normal;fill:#4d8486;fill-opacity:1;font-family:DINPro-Black;-inkscape-font-specification:DINPro-Black"
         d="m 923.78125,577.46875 c -28.12264,-0.81395 -55.11969,22.65757 -55.76553,51.27386 -1.46928,21.27721 -2.43781,43.16721 2.26553,64.06989 7.09188,23.97155 32.21287,39.80835 56.84375,38.3125 26.0986,0.35637 52.03349,-19.24963 55.23829,-45.95318 2.83235,-18.56851 1.80459,-37.62913 0.91796,-56.35932 -1.32667,-17.48858 -10.71658,-34.18886 -26.09375,-43.0625 -9.9421,-6.00173 -21.76905,-8.7286 -33.40625,-8.28125 z m 2.53125,39.34375 c 8.96117,-0.17764 14.52633,9.06422 13.68429,17.24589 1.12627,16.54586 1.9755,33.70298 -1.65304,49.87911 -4.75288,10.45672 -22.50393,10.36122 -25.90625,-1.21875 -3.32084,-13.30355 -1.57338,-27.38323 -2.125,-41.03125 0.85157,-7.55771 0.0228,-17.32118 6.75,-22.40625 2.72472,-1.85477 5.97143,-2.53212 9.25,-2.46875 z"
         id="path4039"
         inkscape:connector-curvature="0" />
      <path
         style="font-size:201px;font-variant:normal;font-weight:bold;font-stretch:normal;fill:#4d8486;fill-opacity:1;font-family:DINPro-Black;-inkscape-font-specification:DINPro-Black"
         d="m 1005.3125,578.46875 c -5.97224,-0.0497 -5.2847,7.13887 -4.875,11.21875 0,46.70833 0,93.41667 0,140.125 14.3958,0 28.7917,0 43.1875,0 0.1256,-17.83275 -0.2508,-36.16744 0.1875,-53.6875 6.5529,-1.27187 8.2552,6.60628 10.1644,11.02129 6.7861,14.21837 13.5129,28.46566 20.3356,42.66621 16.625,0 33.25,0 49.875,0 -10.7062,-20.68897 -21.4437,-41.36178 -32.1875,-62.03125 18.5482,-10.69434 26.6001,-34.82889 19.5938,-54.84375 -6.126,-19.47074 -25.2229,-33.73068 -45.7188,-33.84375 -20.1661,-1.4574 -40.4354,0.50994 -60.5625,-0.625 z m 41.3437,39.25 c 7.2131,1.83853 16.8954,-2.46239 22,4.8125 5.4681,6.41203 0.1358,16.68532 -8.0624,16.59375 -5.5096,0.284 -11.7535,0.20054 -16.9376,-0.125 -0.8729,-5.27377 1.1012,-10.98658 -0.4374,-16.28125 -0.2913,-2.33275 0.5393,-5.26767 3.4374,-5 z"
         id="path4041"
         inkscape:connector-curvature="0" />
    </g>
    <g
       style="font-size:40px;font-style:normal;font-weight:normal;line-height:125%;letter-spacing:0px;word-spacing:0px;fill:#4d8486;fill-opacity:1;stroke:none;font-family:Sans"
       id="text3939-8"
       transform="matrix(0.91867296,0,0,0.8879793,10.734416,431.4313)" />
    <g
       inkscape:groupmode="layer"
       id="layer3"
       inkscape:label="MiddleText"
       style="display:inline">
      <path
         style="font-size:201px;font-style:normal;font-variant:normal;font-weight:bold;font-stretch:normal;line-height:125%;letter-spacing:0px;word-spacing:0px;fill:#2a4b4d;fill-opacity:1;stroke:none;font-family:DINPro-Black;-inkscape-font-specification:DINPro-Black"
         d="m 47.911962,326.289 c -9.959002,0.32429 -19.936711,-0.1427 -29.885579,0.49949 -1.206234,9.33379 0.260739,18.80179 -0.430628,28.19334 0,31.64351 0,63.28703 0,94.93054 9.55037,0 19.100742,0 28.651113,0 0.19374,-15.60629 -0.385925,-32.14601 0.287085,-47.1739 5.009581,0.70015 13.157723,-2.96553 15.343508,3.40791 7.176184,14.58707 14.325418,29.18666 21.518244,43.76599 11.110202,0 22.220405,0 33.330605,0 -9.29373,-17.34187 -18.575519,-34.679 -27.904692,-52.00229 17.302682,-6.79007 26.615692,-27.50335 20.239512,-44.50996 -5.23175,-16.97158 -23.436974,-28.11301 -41.56995,-26.86137 -6.521671,-0.30876 -13.051697,-0.30591 -19.579218,-0.24975 z m 16.191611,24.25294 c 8.795186,-0.46949 18.64026,5.58621 18.1725,14.81815 0.13302,8.60225 -8.168419,15.77735 -16.965024,14.73367 -6.35137,0.32718 -12.710021,-0.2516 -19.064181,-0.0265 0,-9.73078 0,-19.46155 0,-29.19232 5.959273,0.21926 11.914997,0.10244 17.856705,-0.33299 z"
         id="path4017-8"
         inkscape:connector-curvature="0" />
      <path
         style="font-size:201px;font-style:normal;font-variant:normal;font-weight:bold;font-stretch:normal;line-height:125%;letter-spacing:0px;word-spacing:0px;fill:#2a4b4d;fill-opacity:1;stroke:none;font-family:DINPro-Black;-inkscape-font-specification:DINPro-Black"
         d="m 177.76064,325.26227 c -23.16882,0.7633 -44.23101,20.73796 -43.28462,43.56348 -0.91028,18.6286 -2.44344,38.06907 3.55202,56.0012 8.29931,19.18665 31.48812,29.26596 52.33565,25.8069 21.30872,-2.61348 39.78525,-21.29086 39.15462,-42.53461 1.12997,-18.43502 2.21011,-37.50375 -2.95317,-55.4206 -7.29681,-18.21746 -27.87901,-29.10141 -47.71357,-27.44411 -0.36378,-5.5e-4 -0.72727,0.0197 -1.09093,0.0277 z m 3.76082,24.28069 c 11.13345,-0.89311 20.34742,9.59645 19.25651,20.00398 1.08066,15.75691 2.17477,32.16605 -2.11752,47.4547 -5.76692,12.09456 -26.25531,13.32093 -32.58418,0.88798 -4.81753,-9.64706 -2.90413,-20.94773 -3.61126,-31.41225 0.4251,-10.24548 -0.85084,-21.74234 5.19023,-30.69081 3.38274,-3.94111 8.61436,-6.13391 13.86622,-6.2436 z"
         id="path4019-2"
         inkscape:connector-curvature="0" />
      <path
         style="font-size:201px;font-style:normal;font-variant:normal;font-weight:bold;font-stretch:normal;line-height:125%;letter-spacing:0px;word-spacing:0px;fill:#2a4b4d;fill-opacity:1;stroke:none;font-family:DINPro-Black;-inkscape-font-specification:DINPro-Black"
         d="m 260.29767,325.98376 c -5.91731,0.49314 -4.14063,7.3037 -3.93307,11.04424 0,37.63737 0,75.27475 0,112.91212 23.17541,-0.98052 46.70447,1.95738 69.64689,-1.80371 14.89611,-3.93707 25.64805,-18.27804 24.99359,-33.18712 0.61433,-11.69617 -6.46634,-23.59465 -17.6442,-28.08345 0.93093,-2.6117 5.07702,-2.60967 6.60296,-5.16138 15.60765,-14.21452 10.34464,-42.69193 -9.21544,-51.11431 -14.47991,-6.36298 -30.94814,-3.72179 -46.39298,-4.2179 -8.02278,0.25478 -16.06032,0.20059 -24.05775,-0.38849 z m 43.46471,24.61367 c 7.04651,-0.51851 16.1872,2.6017 16.67966,10.60026 1.16777,7.42149 -5.35482,14.94928 -13.32076,13.81918 -7.37322,0.39215 -14.75653,-0.1114 -22.13428,0.0555 0,-8.05656 0,-16.11312 0,-24.16968 6.25899,0.18998 12.52367,0.002 18.77538,-0.30525 z m 0.88997,48.72787 c 7.3644,-0.5823 16.7154,2.46548 17.54091,10.628 1.67577,8.07407 -5.44771,16.99 -14.32556,15.42864 -7.62467,0.26202 -15.25443,-0.0602 -22.8807,0.0555 0,-8.6023 0,-17.2046 0,-25.8069 6.55538,0.16353 13.11665,-0.003 19.66535,-0.30524 z"
         id="path4021-4"
         inkscape:connector-curvature="0" />
      <path
         style="font-size:201px;font-style:normal;font-variant:normal;font-weight:bold;font-stretch:normal;line-height:125%;letter-spacing:0px;word-spacing:0px;fill:#2a4b4d;fill-opacity:1;stroke:none;font-family:DINPro-Black;-inkscape-font-specification:DINPro-Black"
         d="m 417.04624,325.20678 c -22.9049,0.66491 -44.22919,19.74426 -43.70453,42.45239 -1.12992,18.90471 -2.50626,38.54774 3.28292,56.83479 7.85482,18.60998 30.04955,29.07907 50.32605,26.38964 21.874,-1.6717 41.59903,-20.28385 41.23707,-41.97843 1.34435,-18.33155 2.11022,-37.23491 -2.45184,-55.14431 -6.74426,-18.21812 -26.80997,-29.80356 -46.59395,-28.58183 -0.69895,-0.0113 -1.39727,0.004 -2.09572,0.0277 z m 3.10052,24.33618 c 11.11878,-0.96009 20.42095,9.4814 19.3721,19.92066 1.17481,15.62243 1.99152,31.83849 -1.8886,47.03853 -5.13971,11.67063 -23.60568,13.87607 -31.43584,3.57966 -6.68193,-9.99087 -4.0543,-22.79902 -5.0527,-34.0762 0.39146,-9.65443 -0.35102,-20.09208 4.24886,-28.85933 3.21049,-4.66342 8.95214,-7.52262 14.75618,-7.60332 z"
         id="path4023-5"
         inkscape:connector-curvature="0" />
      <path
         style="font-size:201px;font-style:normal;font-variant:normal;font-weight:bold;font-stretch:normal;line-height:125%;letter-spacing:0px;word-spacing:0px;fill:#2a4b4d;fill-opacity:1;stroke:none;font-family:DINPro-Black;-inkscape-font-specification:DINPro-Black"
         d="m 47.911962,549.3938 c -9.959002,0.32429 -19.936711,-0.1427 -29.885579,0.49949 -1.206234,9.33379 0.260739,18.80179 -0.430628,28.19334 0,31.64352 0,63.28702 0,94.93054 9.55037,0 19.100742,0 28.651113,0 0.19374,-15.60629 -0.385925,-32.14601 0.287085,-47.1739 5.009581,0.70014 13.157723,-2.96553 15.343508,3.40791 7.176184,14.58707 14.325418,29.18666 21.518244,43.76599 11.110202,0 22.220405,0 33.330605,0 -9.29373,-17.34186 -18.575519,-34.679 -27.904692,-52.00229 17.302682,-6.79008 26.615692,-27.50335 20.239512,-44.50996 -5.23175,-16.97158 -23.436974,-28.11301 -41.56995,-26.86138 -6.521671,-0.30875 -13.051697,-0.3059 -19.579218,-0.24974 z m 16.191611,24.25293 c 8.795186,-0.46949 18.64026,5.58622 18.1725,14.81816 0.13302,8.60225 -8.168419,15.77735 -16.965024,14.73367 -6.35137,0.32719 -12.710021,-0.2516 -19.064181,-0.0265 0,-9.73077 0,-19.46155 0,-29.19232 5.959273,0.21927 11.914997,0.10244 17.856705,-0.333 z"
         id="path4025-5"
         inkscape:connector-curvature="0" />
      <path
         style="font-size:201px;font-style:normal;font-variant:normal;font-weight:bold;font-stretch:normal;line-height:125%;letter-spacing:0px;word-spacing:0px;fill:#2a4b4d;fill-opacity:1;stroke:none;font-family:DINPro-Black;-inkscape-font-specification:DINPro-Black"
         d="m 138.05675,551.25301 c 0,40.58805 0,81.17611 0,121.76416 28.56498,0 57.12997,0 85.69496,0 0,-8.10281 0,-16.20562 0,-24.30844 -19.01462,0 -38.02923,0 -57.04385,0 0,-8.62079 0,-17.2416 0,-25.86239 16.24903,0 32.49806,0 48.74708,0 0,-8.09356 0,-16.18713 0,-24.28069 -16.24902,0 -32.49805,0 -48.74708,0 0,-8.26005 0,-16.52011 0,-24.78017 19.01462,0 38.02923,0 57.04385,0 0,-8.10281 0,-16.20562 0,-24.30843 -28.56499,0 -57.12998,0 -85.69496,0 l 0,0.88798 0,0.88798 z"
         id="path4027-1"
         inkscape:connector-curvature="0" />
      <path
         style="font-size:201px;font-style:normal;font-variant:normal;font-weight:bold;font-stretch:normal;line-height:125%;letter-spacing:0px;word-spacing:0px;fill:#2a4b4d;fill-opacity:1;stroke:none;font-family:DINPro-Black;-inkscape-font-specification:DINPro-Black"
         d="m 250.22097,551.25301 c 0,40.58805 0,81.17611 0,121.76416 9.55037,0 19.10075,0 28.65112,0 0,-16.36287 0,-32.72574 0,-49.08861 16.24902,0 32.49805,0 48.74708,0 0,-8.09356 0,-16.18712 0,-24.28068 -16.24903,0 -32.49806,0 -48.74708,0 0,-8.6208 0,-17.2416 0,-25.8624 19.01462,0 38.02923,0 57.04385,0 0,-8.10281 0,-16.20562 0,-24.30843 -28.56499,0 -57.12998,0 -85.69497,0 l 0,0.88798 0,0.88798 z"
         id="path4029-7"
         inkscape:connector-curvature="0" />
      <path
         style="font-size:201px;font-style:normal;font-variant:normal;font-weight:bold;font-stretch:normal;line-height:125%;letter-spacing:0px;word-spacing:0px;fill:#2a4b4d;fill-opacity:1;stroke:none;font-family:DINPro-Black;-inkscape-font-specification:DINPro-Black"
         d="m 360.23206,551.25301 c 0,40.58805 0,81.17611 0,121.76416 27.94297,0 55.88594,0 83.82891,0 0,-8.10281 0,-16.20562 0,-24.30844 -18.40217,0 -36.80434,0 -55.20651,0 0,-33.07722 0,-66.15445 0,-99.23168 -9.5408,0 -19.0816,0 -28.6224,0 l 0,0.88798 0,0.88798 z"
         id="path4031-1"
         inkscape:connector-curvature="0" />
      <path
         style="font-size:201px;font-style:normal;font-variant:normal;font-weight:bold;font-stretch:normal;line-height:125%;letter-spacing:0px;word-spacing:0px;fill:#2a4b4d;fill-opacity:1;stroke:none;font-family:DINPro-Black;-inkscape-font-specification:DINPro-Black"
         d="m 466.62587,551.25301 c 0,40.58805 0,81.17611 0,121.76416 28.56499,0 57.12998,0 85.69496,0 0,-8.10281 0,-16.20562 0,-24.30844 -19.02418,0 -38.04837,0 -57.07255,0 0,-8.62079 0,-17.2416 0,-25.86239 16.24902,0 32.49805,0 48.74708,0 0,-8.09356 0,-16.18713 0,-24.28069 -16.24903,0 -32.49806,0 -48.74708,0 0,-8.26005 0,-16.52011 0,-24.78017 19.02418,0 38.04837,0 57.07255,0 0,-8.10281 0,-16.20562 0,-24.30843 -28.56498,0 -57.12997,0 -85.69496,0 l 0,0.88798 0,0.88798 z"
         id="path4033-1"
         inkscape:connector-curvature="0" />
      <path
         style="font-size:201px;font-style:normal;font-variant:normal;font-weight:bold;font-stretch:normal;line-height:125%;letter-spacing:0px;word-spacing:0px;fill:#2a4b4d;fill-opacity:1;stroke:none;font-family:DINPro-Black;-inkscape-font-specification:DINPro-Black"
         d="m 619.92942,548.47807 c -24.02252,-0.28351 -46.03346,20.64008 -44.78114,44.11825 -0.86009,18.48712 -2.37109,37.76131 3.67053,55.55743 8.60837,19.17769 31.84927,29.15194 52.70886,25.44615 18.56581,-2.47843 35.40698,-16.99233 37.89526,-35.15843 -2.21651,-4.401 -8.31897,-1.31794 -12.22984,-2.19219 -5.49051,0.0327 -11.06007,-0.45978 -16.47869,0.55498 -2.83804,13.82398 -24.5902,17.88419 -32.55547,6.32685 -6.26008,-8.6486 -3.94995,-19.95729 -5.06038,-29.9412 0.20832,-10.69351 -0.30125,-22.05844 3.65366,-32.0786 6.85817,-11.90618 27.90654,-11.20085 32.95739,1.91471 0.92768,4.49442 4.98923,3.31342 8.69803,3.12994 7.24396,-0.08 14.49914,0.48538 21.73301,-0.13301 -2.93627,-20.2581 -21.71164,-37.23849 -43.14892,-37.46163 -2.34938,-0.16428 -4.70958,-0.19671 -7.0623,-0.0833 z"
         id="path4035-5"
         inkscape:connector-curvature="0" />
      <path
         style="font-size:201px;font-style:normal;font-variant:normal;font-weight:bold;font-stretch:normal;line-height:125%;letter-spacing:0px;word-spacing:0px;fill:#2a4b4d;fill-opacity:1;stroke:none;font-family:DINPro-Black;-inkscape-font-specification:DINPro-Black"
         d="m 683.54753,551.25301 c 0,7.51082 0,15.02165 0,22.53247 10.77527,0 21.55053,0 32.3258,0 0,33.07723 0,66.15446 0,99.23169 9.5408,0 19.0816,0 28.6224,0 0,-33.07723 0,-66.15446 0,-99.23169 10.77528,0 21.55054,0 32.32581,0 0,-8.10281 0,-16.20562 0,-24.30843 -31.09134,0 -62.18268,0 -93.27401,0 l 0,0.88798 0,0.88798 z"
         id="path4037-2"
         inkscape:connector-curvature="0" />
      <path
         style="font-size:201px;font-style:normal;font-variant:normal;font-weight:bold;font-stretch:normal;line-height:125%;letter-spacing:0px;word-spacing:0px;fill:#2a4b4d;fill-opacity:1;stroke:none;font-family:DINPro-Black;-inkscape-font-specification:DINPro-Black"
         d="m 844.40142,548.33932 c -21.20852,-1.42376 -42.21285,12.80944 -47.28295,32.82749 -2.2545,12.81509 -1.90482,26.02597 -1.979,39.01509 0.67597,13.48479 1.34208,28.57384 11.56765,38.76635 17.70735,19.77694 53.19436,20.68005 71.82874,1.63721 8.94811,-8.25194 12.68753,-20.20009 12.67088,-31.98716 0.97779,-16.45338 1.25047,-33.28571 -1.99131,-49.48494 -5.63741,-18.33781 -25.03789,-31.36414 -44.81401,-30.77404 z m -1.57897,24.30844 c 11.10398,-1.00448 20.43459,9.50273 19.37134,19.92073 1.07161,15.80572 2.19726,32.20156 -2.08881,47.56569 -5.7703,11.89277 -25.51945,13.1792 -32.26838,1.47072 -5.30228,-10.0051 -3.22764,-21.96018 -3.93307,-32.91073 0.48335,-9.89724 -0.76524,-20.95908 5.0527,-29.60856 3.34602,-4.00275 8.57606,-6.35448 13.86622,-6.43785 z"
         id="path4039-7"
         inkscape:connector-curvature="0" />
      <path
         style="font-size:201px;font-style:normal;font-variant:normal;font-weight:bold;font-stretch:normal;line-height:125%;letter-spacing:0px;word-spacing:0px;fill:#2a4b4d;fill-opacity:1;stroke:none;font-family:DINPro-Black;-inkscape-font-specification:DINPro-Black"
         d="m 948.09667,549.3938 c -9.95905,0.32429 -19.93675,-0.1427 -29.88562,0.49949 -1.20624,9.33379 0.26074,18.80179 -0.43063,28.19334 0,31.64352 0,63.28702 0,94.93054 9.55037,0 19.10073,0 28.65107,0 0.19375,-15.60629 -0.38584,-32.14601 0.28718,-47.1739 5.00952,0.70014 13.15769,-2.96553 15.34349,3.40791 7.17612,14.58707 14.32542,29.18666 21.51826,43.76599 11.11015,0 22.22028,0 33.33058,0 -9.2938,-17.34186 -18.5755,-34.679 -27.90472,-52.00229 17.30262,-6.79008 26.61572,-27.50335 20.23952,-44.50996 -5.2317,-16.97158 -23.43696,-28.11301 -41.57,-26.86138 -6.52166,-0.30875 -13.05168,-0.3059 -19.57913,-0.24974 z m 16.19162,24.25293 c 8.76974,-0.47538 18.68259,5.57455 18.14379,14.81816 0.14313,8.58367 -8.13421,15.78161 -16.93638,14.73367 -6.35134,0.32719 -12.71003,-0.2516 -19.06421,-0.0265 9e-5,-9.73077 0,-19.46155 0,-29.19232 5.95934,0.21927 11.915,0.10244 17.8568,-0.333 z"
         id="path4041-6"
         inkscape:connector-curvature="0" />
    </g>
    <g
       inkscape:groupmode="layer"
       id="layer2"
       inkscape:label="TopText"
       style="display:inline">
      <path
         style="font-size:201px;font-style:normal;font-variant:normal;font-weight:bold;font-stretch:normal;line-height:125%;letter-spacing:0px;word-spacing:0px;fill:#c9cccc;fill-opacity:1;stroke:none;font-family:DINPro-Black;-inkscape-font-specification:DINPro-Black"
         d="m 46.945317,329.80262 c -8.887137,0.28873 -17.786465,-0.0527 -26.670224,0.33299 0.07236,38.6898 -0.104569,77.46138 -0.02871,116.18654 7.100577,0 14.201153,0 21.301729,0 0,-16.14087 0,-32.28175 0,-48.42262 6.674472,3.6451 16.284912,-2.55095 21.416567,4.41215 7.36693,14.58156 14.446196,29.35563 21.703648,44.01047 8.335046,0 16.670083,0 25.005133,0 -9.02375,-16.80092 -18.041693,-33.59462 -27.072147,-50.39282 18.030477,-4.68688 28.503537,-25.42118 21.703647,-42.20677 -5.096619,-15.23405 -21.658016,-24.87819 -38.010092,-23.6702 -6.445311,-0.30676 -12.898364,-0.30763 -19.349552,-0.24974 z m 16.134197,17.1491 c 10.411835,-0.40778 21.722077,6.58716 21.818482,17.39884 0.682914,10.24782 -8.642516,20.03778 -19.435674,19.20256 -7.964411,0.52077 -15.953531,-0.4484 -23.914209,0.22199 0,-12.18196 0,-24.36393 0,-36.5459 7.18925,0.21053 14.360512,0.27054 21.531401,-0.27749 z"
         id="path4017-8-1"
         inkscape:connector-curvature="0" />
      <path
         style="font-size:201px;font-style:normal;font-variant:normal;font-weight:bold;font-stretch:normal;line-height:125%;letter-spacing:0px;word-spacing:0px;fill:#c9cccc;fill-opacity:1;stroke:none;font-family:DINPro-Black;-inkscape-font-specification:DINPro-Black"
         d="m 176.88013,328.77589 c -21.30027,0.71284 -40.77369,19.16447 -39.75173,40.17815 -0.86273,18.40965 -2.55043,37.55816 3.57898,55.19638 7.88681,16.98053 28.58298,25.86438 47.22553,23.05971 20.01499,-2.06179 37.60698,-19.49396 36.88434,-39.34361 1.02848,-18.19995 2.36067,-37.10055 -3.03698,-54.72669 -7.0506,-16.4331 -25.94243,-25.95058 -43.92405,-24.39169 l -0.91828,0.0261 -0.0578,0.002 z m 3.50244,17.17685 c 13.06098,-1.03487 24.10132,11.11962 23.04757,23.38927 1.13195,16.14981 2.13116,32.87587 -2.23389,48.6203 -6.12021,14.08429 -28.80179,16.75895 -37.83784,3.96816 -7.15401,-10.09138 -4.80278,-23.06123 -5.59816,-34.60344 0.39167,-11.16661 -0.84812,-23.62551 5.65558,-33.38247 4.033,-5.00211 10.46837,-7.86354 16.96674,-7.99182 z"
         id="path4019-2-4"
         inkscape:connector-curvature="0" />
      <path
         style="font-size:201px;font-style:normal;font-variant:normal;font-weight:bold;font-stretch:normal;line-height:125%;letter-spacing:0px;word-spacing:0px;fill:#c9cccc;fill-opacity:1;stroke:none;font-family:DINPro-Black;-inkscape-font-specification:DINPro-Black"
         d="m 259.50328,329.49738 c -2.45643,1.28996 0.29756,5.34243 -0.48805,7.65882 0.1149,36.30534 -0.22975,73.05487 0.17225,109.08271 21.74702,-0.63301 43.81436,1.95129 65.34062,-1.72046 13.20528,-3.70771 22.51193,-16.73169 21.78977,-29.99706 0.44455,-10.51204 -6.00611,-20.9128 -16.19161,-24.75242 -3.62026,-2.96628 -0.005,-7.76353 3.64598,-8.57455 16.97744,-11.58972 12.64515,-40.23157 -6.28716,-47.70114 -13.84765,-5.63131 -29.41177,-3.10577 -44.09631,-3.60741 -7.96094,0.2053 -15.9517,0.27445 -23.88549,-0.38849 z m 43.12021,17.50984 c 8.6642,-0.57949 19.314,3.58125 20.29693,12.95895 2.11068,9.51121 -6.39321,19.81076 -16.67966,18.56431 -8.64544,0.43876 -17.3052,-0.25821 -25.95251,0.1665 0,-10.49851 0,-20.99701 0,-31.49552 7.44505,0.31369 14.89641,0.21221 22.33524,-0.19424 z m 0.94738,48.75561 c 8.75216,-0.6092 19.39684,3.0931 20.98594,12.48721 2.74937,9.98387 -5.71759,22.11352 -17.05216,20.62482 -9.06896,0.34853 -18.1455,-0.13493 -27.2164,0.1317 0,-11.02575 0,-22.05149 0,-33.07723 7.75975,0.33888 15.5262,0.12463 23.28262,-0.1665 z"
         id="path4021-4-2"
         inkscape:connector-curvature="0" />
      <path
         style="font-size:201px;font-style:normal;font-variant:normal;font-weight:bold;font-stretch:normal;line-height:125%;letter-spacing:0px;word-spacing:0px;fill:#c9cccc;fill-opacity:1;stroke:none;font-family:DINPro-Black;-inkscape-font-specification:DINPro-Black"
         d="m 416.19443,328.72039 c -21.45423,0.61141 -41.19595,18.62645 -40.26317,40.00849 -1.05015,18.35807 -2.44219,37.5276 3.40142,55.19955 8.3323,18.14969 30.59174,26.68802 50.06768,22.89321 18.978,-3.27028 34.86485,-20.11422 34.16236,-39.03414 1.18465,-17.81359 2.1108,-36.27804 -2.61169,-53.5932 -6.58692,-16.79213 -25.56724,-26.9149 -43.83792,-25.50165 l -0.91823,0.0277 -4.5e-4,2e-5 z m 2.84215,17.23235 c 13.00127,-1.0903 24.10551,10.95699 23.13369,23.19503 1.10887,16.16737 2.15352,33.0169 -2.20517,48.7313 -5.69089,13.1212 -25.82798,16.70174 -35.97179,6.21585 -9.28168,-9.37868 -6.53,-23.76906 -7.52164,-35.60242 0.24195,-10.95836 -0.54317,-22.69583 4.44983,-32.77198 3.76442,-5.96795 10.9041,-9.6689 18.11508,-9.76778 z"
         id="path4023-5-3"
         inkscape:connector-curvature="0" />
      <path
         style="font-size:201px;font-style:normal;font-variant:normal;font-weight:bold;font-stretch:normal;line-height:125%;letter-spacing:0px;word-spacing:0px;fill:#c9cccc;fill-opacity:1;stroke:none;font-family:DINPro-Black;-inkscape-font-specification:DINPro-Black"
         d="m 46.945317,552.90742 c -8.887137,0.28873 -17.786465,-0.0527 -26.670224,0.33299 0.07236,38.6898 -0.104569,77.46137 -0.02871,116.18654 7.100577,0 14.201153,0 21.301729,0 0,-16.14087 0,-32.28175 0,-48.42262 6.674472,3.6451 16.284912,-2.55095 21.416567,4.41215 7.36693,14.58156 14.446196,29.35563 21.703648,44.01047 8.335046,0 16.670083,0 25.005133,0 -9.02375,-16.80092 -18.041693,-33.59463 -27.072147,-50.39282 18.030477,-4.68688 28.503537,-25.42118 21.703647,-42.20677 -5.096619,-15.23405 -21.658016,-24.8782 -38.010092,-23.6702 -6.445311,-0.30676 -12.898364,-0.30763 -19.349552,-0.24974 z m 16.134197,17.1491 c 10.411835,-0.40778 21.722077,6.58716 21.818482,17.39884 0.682914,10.24782 -8.642516,20.03778 -19.435674,19.20256 -7.964411,0.52077 -15.953531,-0.4484 -23.914209,0.22199 0,-12.18197 0,-24.36393 0,-36.5459 7.18925,0.21053 14.360512,0.27054 21.531401,-0.27749 z"
         id="path4025-5-2"
         inkscape:connector-curvature="0" />
      <path
         style="font-size:201px;font-style:normal;font-variant:normal;font-weight:bold;font-stretch:normal;line-height:125%;letter-spacing:0px;word-spacing:0px;fill:#c9cccc;fill-opacity:1;stroke:none;font-family:DINPro-Black;-inkscape-font-specification:DINPro-Black"
         d="m 140.70738,669.42695 c 26.11519,0 52.23039,0 78.34558,0 0,-5.73486 0,-11.46973 0,-17.2046 -19.01462,0 -38.02923,0 -57.04385,0 0,-10.98874 0,-21.97748 0,-32.96623 16.24903,0 32.49806,0 48.74708,0 0,-5.72562 0,-11.45123 0,-17.17685 -16.24902,0 -32.49805,0 -48.74708,0 0,-10.628 0,-21.256 0,-31.884 19.01462,0 38.02923,0 57.04385,0 0,-5.73487 0,-11.46974 0,-17.2046 -26.11519,0 -52.23039,0 -78.34558,0 0,38.81209 0,77.62419 0,116.43628 z"
         id="path4027-1-2"
         inkscape:connector-curvature="0" />
      <path
         style="font-size:201px;font-style:normal;font-variant:normal;font-weight:bold;font-stretch:normal;line-height:125%;letter-spacing:0px;word-spacing:0px;fill:#c9cccc;fill-opacity:1;stroke:none;font-family:DINPro-Black;-inkscape-font-specification:DINPro-Black"
         d="m 252.87161,669.42695 c 7.10058,0 14.20115,0 21.30173,0 0,-16.36286 0,-32.72574 0,-49.0886 16.24902,0 32.49805,0 48.74708,0 0,-5.72562 0,-11.45123 0,-17.17685 -16.24903,0 -32.49806,0 -48.74708,0 0,-10.98875 0,-21.97749 0,-32.96623 19.01462,0 38.02923,0 57.04385,0 0,-5.73487 0,-11.46974 0,-17.2046 -26.11519,0 -52.23039,0 -78.34558,0 0,38.81209 0,77.62419 0,116.43628 z"
         id="path4029-7-1"
         inkscape:connector-curvature="0" />
      <path
         style="font-size:201px;font-style:normal;font-variant:normal;font-weight:bold;font-stretch:normal;line-height:125%;letter-spacing:0px;word-spacing:0px;fill:#c9cccc;fill-opacity:1;stroke:none;font-family:DINPro-Black;-inkscape-font-specification:DINPro-Black"
         d="m 362.88269,669.42695 c 25.49318,0 50.98635,0 76.47953,0 0,-5.73486 0,-11.46973 0,-17.2046 -18.40217,0 -36.80434,0 -55.2065,0 0,-33.07723 0,-66.15445 0,-99.23168 -7.09101,0 -14.18202,0 -21.27303,0 0,38.81209 0,77.62419 0,116.43628 z"
         id="path4031-1-6"
         inkscape:connector-curvature="0" />
      <path
         style="font-size:201px;font-style:normal;font-variant:normal;font-weight:bold;font-stretch:normal;line-height:125%;letter-spacing:0px;word-spacing:0px;fill:#c9cccc;fill-opacity:1;stroke:none;font-family:DINPro-Black;-inkscape-font-specification:DINPro-Black"
         d="m 469.27651,669.42695 c 26.11519,0 52.23039,0 78.34557,0 0,-5.73486 0,-11.46973 0,-17.2046 -19.02418,0 -38.04837,0 -57.07255,0 0,-10.98874 0,-21.97748 0,-32.96623 16.24903,0 32.49805,0 48.74708,0 0,-5.72562 0,-11.45123 0,-17.17685 -16.24903,0 -32.49805,0 -48.74708,0 0,-10.628 0,-21.256 0,-31.884 19.02418,0 38.04837,0 57.07255,0 0,-5.73487 0,-11.46974 0,-17.2046 -26.11518,0 -52.23038,0 -78.34557,0 0,38.81209 0,77.62419 0,116.43628 z"
         id="path4033-1-8"
         inkscape:connector-curvature="0" />
      <path
         style="font-size:201px;font-style:normal;font-variant:normal;font-weight:bold;font-stretch:normal;line-height:125%;letter-spacing:0px;word-spacing:0px;fill:#c9cccc;fill-opacity:1;stroke:none;font-family:DINPro-Black;-inkscape-font-specification:DINPro-Black"
         d="m 618.99149,551.99169 c -22.08605,-0.28755 -42.46041,18.98851 -41.1889,40.67754 -0.85309,17.98641 -2.3367,36.7217 3.37977,54.05875 8.04615,17.78932 29.55665,26.72881 48.77579,23.33721 16.45667,-2.15812 31.3877,-14.78728 34.62249,-30.46879 -7.31925,0.68093 -14.68875,-0.41644 -22.01945,0.36074 -5.1159,14.29815 -27.20689,18.30999 -37.23496,6.63209 -8.2373,-9.11052 -5.88077,-22.16557 -6.92572,-33.35438 0.099,-11.11385 -0.18452,-22.77633 3.79649,-33.29956 7.13071,-13.80836 30.40232,-14.70072 38.32589,-1.22097 1.19626,2.24589 1.8944,5.17783 5.16693,3.90814 6.14524,-0.45198 13.36721,0.70886 18.86211,-0.24523 -4.32212,-17.39775 -21.601,-30.67458 -40.22065,-30.38554 -1.77697,-0.0896 -3.5628,-0.0853 -5.33979,0 z"
         id="path4035-5-5"
         inkscape:connector-curvature="0" />
      <path
         style="font-size:201px;font-style:normal;font-variant:normal;font-weight:bold;font-stretch:normal;line-height:125%;letter-spacing:0px;word-spacing:0px;fill:#c9cccc;fill-opacity:1;stroke:none;font-family:DINPro-Black;-inkscape-font-specification:DINPro-Black"
         d="m 686.19816,570.19527 c 10.77527,0 21.55053,0 32.3258,0 0,33.07722 0,66.15445 0,99.23168 7.09101,0 14.18202,0 21.27302,0 0,-33.07723 0,-66.15446 0,-99.23168 10.77528,0 21.55054,0 32.32581,0 0,-5.73487 0,-11.46974 0,-17.2046 -28.64154,0 -57.28309,0 -85.92463,0 0,5.73486 0,11.46973 0,17.2046 z"
         id="path4037-2-7"
         inkscape:connector-curvature="0" />
      <path
         style="font-size:201px;font-style:normal;font-variant:normal;font-weight:bold;font-stretch:normal;line-height:125%;letter-spacing:0px;word-spacing:0px;fill:#c9cccc;fill-opacity:1;stroke:none;font-family:DINPro-Black;-inkscape-font-specification:DINPro-Black"
         d="m 843.4922,551.85294 c -19.27658,-1.37933 -38.50097,11.1878 -43.57955,29.24782 -2.42354,11.66187 -1.83037,23.77173 -2.19499,35.63005 0.64182,14.22511 0.45214,30.46534 11.86976,41.04141 17.69419,18.12039 51.81509,17.21488 67.89567,-2.46969 10.1382,-11.08205 8.91912,-26.70551 9.64607,-40.4863 -0.25732,-12.11263 0.27202,-24.69428 -3.0431,-36.40716 -5.78571,-15.97995 -23.15488,-27.04297 -40.59386,-26.55613 z m -1.77993,17.2046 c 13.00408,-1.10673 24.13692,10.97516 23.13215,23.25066 1.11033,16.16304 2.16512,32.91243 -2.17493,48.67567 -5.97483,13.86522 -27.98141,16.80493 -37.3785,4.68964 -7.61193,-9.76356 -5.32184,-22.89872 -6.09217,-34.35369 0.36142,-11.06689 -0.83115,-23.1539 4.8577,-33.16049 3.85781,-5.58878 10.71636,-8.99408 17.65575,-9.10179 z"
         id="path4039-7-6"
         inkscape:connector-curvature="0" />
      <path
         style="font-size:201px;font-style:normal;font-variant:normal;font-weight:bold;font-stretch:normal;line-height:125%;letter-spacing:0px;word-spacing:0px;fill:#c9cccc;fill-opacity:1;stroke:none;font-family:DINPro-Black;-inkscape-font-specification:DINPro-Black"
         d="m 947.12994,552.90742 c -8.88715,0.28873 -17.78642,-0.0527 -26.67013,0.33299 0.0726,38.6898 -0.10464,77.46137 -0.0285,116.18654 7.10056,0 14.20108,0 21.30168,0 0,-16.14087 0,-32.28175 0,-48.42262 6.67444,3.6451 16.28495,-2.55095 21.41657,4.41215 7.36693,14.58156 14.44622,29.35563 21.70365,44.01047 8.33502,0 16.67009,0 25.00509,0 -9.0237,-16.80092 -18.04164,-33.59463 -27.07211,-50.39282 18.03041,-4.68688 28.50361,-25.42118 21.70371,-42.20677 -5.09667,-15.23405 -21.65805,-24.8782 -38.01015,-23.6702 -6.44532,-0.30676 -12.89835,-0.30763 -19.34955,-0.24974 z m 16.1342,17.1491 c 10.36713,-0.39911 21.71623,6.54606 21.78972,17.34334 0.81606,10.63965 -9.18819,20.4411 -20.32398,19.3102 -7.66155,0.39626 -15.34175,-0.47405 -22.99714,0.16985 0,-12.18197 0,-24.36393 0,-36.5459 7.18926,0.21053 14.36051,0.27054 21.5314,-0.27749 z"
         id="path4041-6-1"
         inkscape:connector-curvature="0" />
    </g>
  </g>
</svg>
