<?xml version="1.0" encoding="UTF-8" standalone="no"?>
<!-- Created with Inkscape (http://www.inkscape.org/) -->

<svg
   xmlns:dc="http://purl.org/dc/elements/1.1/"
   xmlns:cc="http://creativecommons.org/ns#"
   xmlns:rdf="http://www.w3.org/1999/02/22-rdf-syntax-ns#"
   xmlns:svg="http://www.w3.org/2000/svg"
   xmlns="http://www.w3.org/2000/svg"
   xmlns:sodipodi="http://sodipodi.sourceforge.net/DTD/sodipodi-0.dtd"
   xmlns:inkscape="http://www.inkscape.org/namespaces/inkscape"
   width="1080"
   height="900"
   id="svg2"
   version="1.1"
   inkscape:version="0.48.4 r9939"
   sodipodi:docname="TitleImage.svg"
   inkscape:export-filename="C:\Users\Archerofyail\Git Repos\RoboReflector\RoboReflector\Assets\Images\TitleImage.png"
   inkscape:export-xdpi="71.699997"
   inkscape:export-ydpi="71.699997">
  <defs
     id="defs4" />
  <sodipodi:namedview
     id="base"
     pagecolor="#ffffff"
     bordercolor="#666666"
     borderopacity="1.0"
     inkscape:pageopacity="0.0"
     inkscape:pageshadow="2"
     inkscape:zoom="1.0638889"
     inkscape:cx="540"
     inkscape:cy="620.2925"
     inkscape:document-units="px"
     inkscape:current-layer="layer2"
     showgrid="false"
     inkscape:window-width="1309"
     inkscape:window-height="781"
     inkscape:window-x="1973"
     inkscape:window-y="120"
     inkscape:window-maximized="0"
     showguides="true"
     inkscape:guide-bbox="true" />
  <metadata
     id="metadata7">
    <rdf:RDF>
      <cc:Work
         rdf:about="">
        <dc:format>image/svg+xml</dc:format>
        <dc:type
           rdf:resource="http://purl.org/dc/dcmitype/StillImage" />
        <dc:title></dc:title>
      </cc:Work>
    </rdf:RDF>
  </metadata>
  <g
     inkscape:label="Layer 1"
     inkscape:groupmode="layer"
     id="layer1"
     transform="translate(0,-152.36218)">
    <g
       style="font-size:40px;font-style:normal;font-weight:normal;line-height:125%;letter-spacing:0px;word-spacing:0px;fill:#4d8486;fill-opacity:1;stroke:none;font-family:Sans"
       id="text3939"
       transform="matrix(0.91867296,0,0,0.8879793,-7.4518425,29.808675)">
      <path
         style="font-size:201px;font-variant:normal;font-weight:bold;font-stretch:normal;fill:#4d8486;fill-opacity:1;font-family:DINPro-Black;-inkscape-font-specification:DINPro-Black"
         d="m 313.17458,337.7916 c -8.11333,1.1955 -8.32893,11.21452 -7.375,17.5625 0,47.22917 0,94.45833 0,141.6875 17.05208,0 34.10417,0 51.15625,0 0.53571,-16.84332 -0.73329,-34.83725 0.40625,-50.96875 5.91434,15.71382 14.46627,30.45792 21.34639,45.87789 0.89987,7.53611 8.40062,4.59262 13.71611,5.09086 15.89583,0 31.79167,0 47.6875,0 -10.95547,-21.65316 -22.6179,-42.95279 -33.34375,-64.71875 22.79662,-15.5813 27.30481,-50.95634 10.3125,-72.46875 -11.26354,-15.43644 -31.03783,-23.19897 -50.03125,-21.9375 -17.95514,-0.48158 -35.92998,0.57257 -53.875,-0.125 z m 44.09375,47.4375 c 6.00956,0.95717 15.7407,-2.44401 18.71875,4.84375 1.77038,6.07018 -5.55534,9.90528 -10.75,8.40625 -2.41788,-0.4141 -6.8132,0.97914 -8.34375,-0.625 0.54008,-4.15719 -0.17147,-8.60181 0.375,-12.625 z"
         id="path4017"
         inkscape:connector-curvature="0" />
      <path
         style="font-size:201px;font-variant:normal;font-weight:bold;font-stretch:normal;fill:#4d8486;fill-opacity:1;font-family:DINPro-Black;-inkscape-font-specification:DINPro-Black"
         d="m 490.23708,336.69785 c -31.14421,0.46719 -59.01828,28.90162 -57.29545,60.34083 -1.04546,22.61286 -2.79979,46.46462 5.7017,67.87792 12.31217,25.98876 44.25209,38.85102 71.75,31.90625 25.04381,-5.62172 45.74477,-28.51707 46,-54.65625 1.57543,-21.01202 1.98514,-42.53248 -2.09375,-63.25 -7.30252,-25.79235 -33.48692,-43.73157 -60.25,-42.25 -1.27088,-0.003 -2.54167,0.0238 -3.8125,0.0312 z m 3.90625,47.3125 c 8.20917,-1.03701 12.51796,8.52369 11.25,15.46875 0.58773,15.90248 2.53778,32.77689 -2.625,47.9375 -5.05206,6.3857 -18.3563,3.39552 -17.87943,-5.86201 -2.08548,-16.30681 -1.85471,-33.31527 0.0357,-49.54424 1.05439,-4.33833 4.48421,-8.20789 9.21875,-8 z"
         id="path4019"
         inkscape:connector-curvature="0" />
      <path
         style="font-size:201px;font-variant:normal;font-weight:bold;font-stretch:normal;fill:#4d8486;fill-opacity:1;font-family:DINPro-Black;-inkscape-font-specification:DINPro-Black"
         d="m 612.11208,337.9166 c -15.46754,0.26764 -30.93771,-0.12327 -46.40625,0 0,53.08333 0,106.16667 0,159.25 29.21748,-1.37402 58.74278,2.29807 87.75,-2.21875 21.496,-5.58171 37.09286,-27.25167 35.1875,-49.53125 -0.28098,-11.23382 -4.52622,-22.563 -12.75,-30.34375 20.10359,-21.77006 10.65901,-62.2562 -17.3125,-72.5625 -14.64601,-6.02379 -30.99628,-4.4537 -46.46875,-4.59375 z m 17.21875,47.21875 c 3.3986,-0.45853 8.14839,2.24188 5.6875,6 -3.43022,3.49984 -9.49247,1.04319 -14.03125,1.53125 -2.26325,0.16837 -4.47709,0.51116 -3.71875,-2.40625 -0.27439,-2.56478 -1.73284,-5.89143 2.375,-4.625 3.227,-0.21481 6.46197,-0.35443 9.6875,-0.5 z m 4.53125,55.15625 c 5.30107,0.1948 4.55586,10.50803 -1.15625,9.15625 -5.04684,0.21377 -11.42454,0.5831 -15.6875,-0.53125 0.16552,-3.53773 -2.44117,-10.49366 3.75,-8.5625 4.36482,-0.003 8.72949,0.0258 13.09375,-0.0625 z"
         id="path4021"
         inkscape:connector-curvature="0" />
      <path
         style="font-size:201px;font-variant:normal;font-weight:bold;font-stretch:normal;fill:#4d8486;fill-opacity:1;font-family:DINPro-Black;-inkscape-font-specification:DINPro-Black"
         d="m 749.89333,336.7291 c -31.05969,0.52399 -58.71078,28.91976 -57.06863,60.2475 -0.89198,23.05686 -3.05359,47.56482 6.31863,69.19 12.79644,25.28787 44.29463,37.5099 71.375,30.59375 25.44133,-5.74659 46.04198,-29.3992 45.84095,-55.9558 1.49533,-20.55848 1.8411,-41.59807 -2.1847,-61.8567 -7.36349,-26.20344 -34.46768,-44.34015 -61.53122,-42.24167 -0.91667,0.008 -1.83335,0.0153 -2.75003,0.0229 z m 4.03125,47.28125 c 8.74222,-1.09624 12.70232,9.29589 11.39576,16.49865 0.63817,15.5326 2.34022,31.9341 -2.58326,46.7201 -5.00715,6.76226 -18.53171,3.44625 -18,-5.6875 -2.17799,-16.10561 -1.59851,-32.57786 -0.125,-48.6875 0.90572,-4.5518 4.2208,-9.06943 9.3125,-8.84375 z"
         id="path4023"
         inkscape:connector-curvature="0" />
      <path
         style="font-size:201px;font-variant:normal;font-weight:bold;font-stretch:normal;fill:#4d8486;fill-opacity:1;font-family:DINPro-Black;-inkscape-font-specification:DINPro-Black"
         d="m 23.9375,574.5625 c -8.113328,1.1955 -8.328929,11.21452 -7.375,17.5625 0,47.22917 0,94.45833 0,141.6875 17.052083,0 34.104167,0 51.15625,0 0.535707,-16.84332 -0.733291,-34.83725 0.40625,-50.96875 5.914336,15.71382 14.466266,30.45792 21.346386,45.87789 0.899877,7.53611 8.400626,4.59262 13.716114,5.09086 15.89583,0 31.79167,0 47.6875,0 -10.95547,-21.65316 -22.6179,-42.95279 -33.34375,-64.71875 22.79662,-15.5813 27.30481,-50.95634 10.3125,-72.46875 -11.26354,-15.43644 -31.037827,-23.19897 -50.03125,-21.9375 -17.955146,-0.48158 -35.929986,0.57257 -53.875,-0.125 z M 68.03125,622 c 6.009555,0.95717 15.740697,-2.44401 18.71875,4.84375 1.770383,6.07018 -5.555337,9.90528 -10.75,8.40625 -2.41788,-0.4141 -6.813203,0.97914 -8.34375,-0.625 0.540082,-4.15719 -0.171475,-8.60181 0.375,-12.625 z"
         id="path4025"
         inkscape:connector-curvature="0" />
      <path
         style="font-size:201px;font-variant:normal;font-weight:bold;font-stretch:normal;fill:#4d8486;fill-opacity:1;font-family:DINPro-Black;-inkscape-font-specification:DINPro-Black"
         d="m 147.6875,576.6875 c 0,52.375 0,104.75 0,157.125 37.76042,0 75.52083,0 113.28125,0 0,-15.79167 0,-31.58333 0,-47.375 -20.64566,-0.0661 -41.29238,0.15611 -61.9375,-0.0937 0.57753,-3.1196 -2.66291,-10.2233 2.75,-9.03125 16.71875,0 33.4375,0 50.15625,0 0,-15.78125 0,-31.5625 0,-47.34375 -17.46678,-0.23081 -35.77568,0.46053 -52.71875,-0.34375 0.16069,-2.71132 -3.14622,-9.21931 2.37497,-7.51442 19.7915,-0.0959 39.58336,-0.0274 59.37503,-0.0481 0,-15.79167 0,-31.58333 0,-47.375 -37.76042,0 -75.52083,0 -113.28125,0 l 0,1 0,1 z"
         id="path4027"
         inkscape:connector-curvature="0" />
      <path
         style="font-size:201px;font-variant:normal;font-weight:bold;font-stretch:normal;fill:#4d8486;fill-opacity:1;font-family:DINPro-Black;-inkscape-font-specification:DINPro-Black"
         d="m 269.78125,576.6875 c 0,52.375 0,104.75 0,157.125 17.0625,0 34.125,0 51.1875,0 0,-18.42708 0,-36.85417 0,-55.28125 17.6875,0 35.375,0 53.0625,0 0,-15.78125 0,-31.5625 0,-47.34375 -17.6352,-0.0701 -35.27173,0.16048 -52.90625,-0.0937 0.57753,-3.1196 -2.66291,-10.2233 2.75,-9.03125 19.72917,0 39.45833,0 59.1875,0 0,-15.79167 0,-31.58333 0,-47.375 -37.76042,0 -75.52083,0 -113.28125,0 l 0,1 0,1 z"
         id="path4029"
         inkscape:connector-curvature="0" />
      <path
         style="font-size:201px;font-variant:normal;font-weight:bold;font-stretch:normal;fill:#4d8486;fill-opacity:1;font-family:DINPro-Black;-inkscape-font-specification:DINPro-Black"
         d="m 389.53125,576.6875 c 0,52.375 0,104.75 0,157.125 37.08333,0 74.16667,0 111.25,0 0,-15.79167 0,-31.58333 0,-47.375 -20.03125,0 -40.0625,0 -60.09375,0 0,-37.25 0,-74.5 0,-111.75 -17.05208,0 -34.10417,0 -51.15625,0 l 0,1 0,1 z"
         id="path4031"
         inkscape:connector-curvature="0" />
      <path
         style="font-size:201px;font-variant:normal;font-weight:bold;font-stretch:normal;fill:#4d8486;fill-opacity:1;font-family:DINPro-Black;-inkscape-font-specification:DINPro-Black"
         d="m 505.34375,576.6875 c 0,52.375 0,104.75 0,157.125 37.76042,0 75.52083,0 113.28125,0 0,-15.79167 0,-31.58333 0,-47.375 -20.65612,-0.082 -41.3132,0.14318 -61.96875,-0.0937 0.57753,-3.1196 -2.66291,-10.2233 2.75,-9.03125 16.71875,0 33.4375,0 50.15625,0 0,-15.78125 0,-31.5625 0,-47.34375 -17.46678,-0.23081 -35.77568,0.46053 -52.71875,-0.34375 0.16069,-2.71132 -3.14622,-9.21931 2.37497,-7.51442 19.80192,-0.0958 39.6042,-0.0275 59.40628,-0.0481 0,-15.79167 0,-31.58333 0,-47.375 -37.76042,0 -75.52083,0 -113.28125,0 l 0,1 0,1 z"
         id="path4033"
         inkscape:connector-curvature="0" />
      <path
         style="font-size:201px;font-variant:normal;font-weight:bold;font-stretch:normal;fill:#4d8486;fill-opacity:1;font-family:DINPro-Black;-inkscape-font-specification:DINPro-Black"
         d="m 680.65625,573.5 c -30.5637,0.59796 -58.43526,28.05222 -57.13598,59.09101 -1.0112,23.21314 -3.13773,47.8289 5.91723,69.69024 12.74495,25.95907 45.06677,38.42618 72.5625,30.96875 22.60982,-5.36741 41.04152,-24.7892 44.47369,-47.91216 1.03008,-4.26364 1.65311,-8.63676 2.43256,-12.96284 -17.5,0 -35,0 -52.5,0 2.0436,8.54222 -6.90596,19.04861 -15.59375,14.53125 -8.55241,-5.07872 -5.56566,-16.73825 -6.6875,-25.09375 -0.22236,-12.56495 -1.16665,-26.2598 3.40625,-37.90625 5.52778,-6.26724 18.39812,-2.61113 18.15625,6.5 0.91391,4.51568 5.67225,7.274 10,5.71875 14.22917,0 28.45833,0 42.6875,0 -0.65658,-25.57173 -16.27147,-52.28252 -41.75,-59.4375 -8.32911,-2.69816 -17.20176,-3.4782 -25.96875,-3.1875 z"
         id="path4035"
         inkscape:connector-curvature="0" />
      <path
         style="font-size:201px;font-variant:normal;font-weight:bold;font-stretch:normal;fill:#4d8486;fill-opacity:1;font-family:DINPro-Black;-inkscape-font-specification:DINPro-Black"
         d="m 741.46875,576.6875 c 0,15.125 0,30.25 0,45.375 11.72917,0 23.45833,0 35.1875,0 0,37.25 0,74.5 0,111.75 17.05208,0 34.10417,0 51.15625,0 0,-37.25 0,-74.5 0,-111.75 11.72917,0 23.45833,0 35.1875,0 0,-15.79167 0,-31.58333 0,-47.375 -40.51042,0 -81.02083,0 -121.53125,0 l 0,1 0,1 z"
         id="path4037"
         inkscape:connector-curvature="0" />
      <path
         style="font-size:201px;font-variant:normal;font-weight:bold;font-stretch:normal;fill:#4d8486;fill-opacity:1;font-family:DINPro-Black;-inkscape-font-specification:DINPro-Black"
         d="m 921.0625,573.46875 c -30.74844,0.44497 -58.54564,28.09175 -57.29301,59.24721 -1.05668,23.04345 -3.06069,47.39885 5.76176,69.22154 12.01865,25.13208 42.43552,37.85412 69.3125,32.15625 25.95887,-4.78106 47.9447,-28.05308 48.30099,-54.98486 1.63689,-20.55101 1.83556,-41.53124 -1.70724,-61.85889 -6.28598,-25.24347 -30.80535,-43.68821 -56.71744,-43.76996 -2.55137,-0.10079 -5.10579,-0.10522 -7.65756,-0.0113 z m 5.09375,47.28125 c 8.22657,0.0175 11.04296,9.8928 10.01775,16.59064 0.63767,15.57624 2.50297,32.30748 -2.799,47.06561 -5.51257,6.30862 -18.39012,2.80733 -17.78125,-6.28125 -2.08841,-15.93801 -1.66609,-32.66253 -0.0937,-48.59375 0.92149,-5.20096 5.1297,-9.41465 10.65625,-8.78125 z"
         id="path4039"
         inkscape:connector-curvature="0" />
      <path
         style="font-size:201px;font-variant:normal;font-weight:bold;font-stretch:normal;fill:#4d8486;fill-opacity:1;font-family:DINPro-Black;-inkscape-font-specification:DINPro-Black"
         d="m 1003.8125,574.5625 c -8.11333,1.1955 -8.32893,11.21452 -7.375,17.5625 0,47.22917 0,94.45833 0,141.6875 17.0521,0 34.1042,0 51.1563,0 0.5357,-16.84332 -0.7333,-34.83725 0.4062,-50.96875 5.9143,15.71382 14.4663,30.45792 21.3464,45.87789 0.8999,7.53611 8.4006,4.59262 13.7161,5.09086 15.8958,0 31.7917,0 47.6875,0 -10.9555,-21.65316 -22.6179,-42.95279 -33.3438,-64.71875 22.7967,-15.5813 27.3049,-50.95634 10.3126,-72.46875 -11.2636,-15.43644 -31.0379,-23.19897 -50.0313,-21.9375 -17.9551,-0.48158 -35.93,0.57257 -53.875,-0.125 z m 44.1563,47.5 c 6.073,0.86109 15.7504,-2.51879 18.6874,4.90625 1.5576,5.60972 -4.9496,9.78163 -9.9062,8.25 -2.4298,-0.84293 -8.7798,1.85096 -9.1108,-1.34272 0.1707,-3.95751 0.08,-7.92414 -0.1704,-11.87603 l 0.5,0.0625 z"
         id="path4041"
         inkscape:connector-curvature="0" />
    </g>
    <g
       style="font-size:40px;font-style:normal;font-weight:normal;line-height:125%;letter-spacing:0px;word-spacing:0px;fill:#4d8486;fill-opacity:1;stroke:none;font-family:Sans"
       id="text3939-8"
       transform="matrix(0.91867296,0,0,0.8879793,10.734416,431.4313)" />
    <g
       inkscape:groupmode="layer"
       id="layer3"
       inkscape:label="MiddleText"
       style="display:inline">
      <path
         style="font-size:201px;font-style:normal;font-variant:normal;font-weight:bold;font-stretch:normal;line-height:125%;letter-spacing:0px;word-spacing:0px;fill:#a0b6b6;fill-opacity:1;stroke:none;font-family:DINPro-Black;-inkscape-font-specification:DINPro-Black"
         d="m 313.62054,337.13839 c -10.53908,0.30663 -21.09739,-0.13028 -31.625,0.59375 -1.57639,14.61701 -0.0433,29.40705 -0.6875,44.09375 0,27.64583 0,55.29167 0,82.9375 10.875,0 21.75,0 32.625,0 0.40071,-15.63082 -0.60403,-31.78194 0.4375,-47.09375 3.92456,-0.0205 10.63957,-2.3924 11.87854,3.11623 7.18616,14.66945 14.44008,29.30603 21.62146,43.97752 12.63541,0 25.27083,0 37.90625,0 -9.50502,-17.65831 -18.95412,-35.34679 -28.46875,-53 18.46991,-8.33079 27.10964,-32.86651 17.46875,-51 -7.68465,-16.18958 -26.36755,-24.9731 -43.96875,-23.46875 -5.72754,-0.17944 -11.45761,-0.22654 -17.1875,-0.15625 z m 16.3125,28.25 c 8.94224,-0.95755 19.14924,7.34077 15.40625,16.84375 -2.4514,7.3396 -10.7385,9.74597 -17.75,8.8125 -4.5426,0.0197 -9.08231,-0.19983 -13.625,-0.15625 0.12856,-8.29852 -0.25476,-17.10892 0.1875,-25.09375 5.26432,0.10968 10.53183,0.0178 15.78125,-0.40625 z"
         id="path4017-8"
         inkscape:connector-curvature="0" />
      <path
         style="font-size:201px;font-style:normal;font-variant:normal;font-weight:bold;font-stretch:normal;line-height:125%;letter-spacing:0px;word-spacing:0px;fill:#a0b6b6;fill-opacity:1;stroke:none;font-family:DINPro-Black;-inkscape-font-specification:DINPro-Black"
         d="m 447.30804,335.95089 c -24.67955,-1.09358 -49.38588,19.31696 -49.15625,44.71875 -0.54165,20.44942 -3.3038,42.50882 5.59375,61.53125 16.08843,28.36026 61.00912,32.24393 82.25,7.65625 8.93245,-9.20383 12.05429,-22.26133 11.60716,-34.89561 0.68772,-17.87017 1.9246,-36.89754 -5.07591,-53.66689 -8.39631,-16.28303 -27.05128,-25.8552 -45.21875,-25.34375 z m 0.5625,28.40625 c 10.55112,-0.55903 18.24741,10.28573 16.76297,20.18274 0.76194,15.21503 2.37469,31.40573 -2.85672,45.84851 -6.72935,10.71637 -26.64702,9.27457 -29.625,-4.03125 -3.19325,-12.91789 -1.48197,-26.576 -1.68562,-39.81043 0.0741,-8.72068 3.04895,-20.17309 13.24812,-21.72082 1.36244,-0.3555 2.71446,-0.36228 4.15625,-0.46875 z"
         id="path4019-2"
         inkscape:connector-curvature="0" />
      <path
         style="font-size:201px;font-style:normal;font-variant:normal;font-weight:bold;font-stretch:normal;line-height:125%;letter-spacing:0px;word-spacing:0px;fill:#a0b6b6;fill-opacity:1;stroke:none;font-family:DINPro-Black;-inkscape-font-specification:DINPro-Black"
         d="m 525.68304,336.85714 c -6.56639,0.42947 -6.63083,8.36456 -5.59375,13.1875 0,38.28125 0,76.5625 0,114.84375 24.74724,-1.49976 50.01248,2.64224 74.40625,-2.65625 15.95061,-5.15461 26.48688,-22.3926 24.09375,-39.03125 -1.03353,-9.99672 -7.2719,-19.36682 -16,-24.09375 12.86993,-6.79341 17.02131,-24.31582 12.40625,-37.53125 -4.05281,-13.91164 -17.85436,-22.67488 -31.89785,-23.72309 -19.01207,-1.94687 -38.34396,0.55699 -57.41465,-0.99566 z m 45.125,28.53125 c 6.78125,-0.58277 15.30268,4.38556 13.3125,12.25 -1.04667,6.52487 -8.06544,9.41494 -14.09375,8.34375 -5.77095,0.10279 -11.54166,-0.0747 -17.3125,-0.0937 0.246,-6.55608 -0.48095,-14.08512 0.34375,-20.0625 5.91965,0.0424 11.84031,-0.0931 17.75,-0.4375 z m 1.0625,48.71875 c 7.03307,-0.64993 15.66589,4.23438 14.21875,12.34375 -0.63547,7.05053 -7.91763,11.38051 -14.56141,9.84715 -6.27025,0.1438 -12.54235,-0.0727 -18.81359,-0.0346 0.30282,-7.0826 -0.59843,-15.36926 0.4375,-21.71875 6.24263,0.047 12.48521,-0.10347 18.71875,-0.4375 z"
         id="path4021-4"
         inkscape:connector-curvature="0" />
      <path
         style="font-size:201px;font-style:normal;font-variant:normal;font-weight:bold;font-stretch:normal;line-height:125%;letter-spacing:0px;word-spacing:0px;fill:#a0b6b6;fill-opacity:1;stroke:none;font-family:DINPro-Black;-inkscape-font-specification:DINPro-Black"
         d="m 685.71429,335.98214 c -24.38047,-0.94942 -49.17702,19.26247 -48.65625,44.53125 -0.96758,20.33861 -3.23723,42.11889 5.15625,61.1875 15.47344,28.08871 58.88054,32.69225 80.8125,9.96875 9.33105,-8.72386 13.5626,-21.60409 13.18794,-34.21677 0.87015,-18.3242 2.1346,-37.6393 -4.40669,-55.06448 -8.16575,-16.96429 -27.35686,-27.16724 -46.09375,-26.40625 z m 1.6875,28.34375 c 10.1835,0.0665 17.37917,10.50439 15.97115,20.12094 0.83287,15.19171 2.26923,31.23875 -2.7524,45.81656 -6.79692,10.75721 -26.50918,9.58872 -29.65625,-3.84375 -3.14034,-11.86859 -1.57301,-24.49339 -1.875,-36.6875 0.22486,-8.84704 1.10621,-21.04982 11.09375,-24.25 2.29212,-0.90853 4.76883,-1.10953 7.21875,-1.15625 z"
         id="path4023-5"
         inkscape:connector-curvature="0" />
      <path
         style="font-size:201px;font-style:normal;font-variant:normal;font-weight:bold;font-stretch:normal;line-height:125%;letter-spacing:0px;word-spacing:0px;fill:#a0b6b6;fill-opacity:1;stroke:none;font-family:DINPro-Black;-inkscape-font-specification:DINPro-Black"
         d="m 47.90625,547.40625 c -10.538871,0.34292 -21.104931,-0.24128 -31.625,0.625 -1.578712,14.6057 -0.0411,29.38648 -0.6875,44.0625 0,27.64583 0,55.29167 0,82.9375 10.875,0 21.75,0 32.625,0 0.401528,-15.63039 -0.605074,-31.78253 0.4375,-47.09375 3.900734,-0.001 10.603352,-2.4543 11.878549,3.08498 7.193479,14.67625 14.444692,29.32459 21.621451,44.00877 12.635417,0 25.27083,0 37.90625,0 C 110.56015,657.3611 101.117,639.65901 91.59375,622 c 18.87554,-8.49068 27.23654,-33.61855 17.09375,-51.78125 -8.04169,-15.8194 -26.289986,-24.08518 -43.59375,-22.6875 -5.727521,-0.20262 -11.457606,-0.17186 -17.1875,-0.125 z M 65,575.625 c 8.715713,-0.58638 18.29132,7.7172 14.59375,16.84375 -2.38231,7.38708 -10.756456,9.73183 -17.718659,8.82601 -4.542551,0.0622 -9.081784,-0.2476 -13.625091,-0.16976 0.10657,-8.3101 -0.21154,-17.04487 0.15625,-25.09375 C 53.940613,576.24274 59.476027,575.9278 65,575.625 z"
         id="path4025-5"
         inkscape:connector-curvature="0" />
      <path
         style="font-size:201px;font-style:normal;font-variant:normal;font-weight:bold;font-stretch:normal;line-height:125%;letter-spacing:0px;word-spacing:0px;fill:#a0b6b6;fill-opacity:1;stroke:none;font-family:DINPro-Black;-inkscape-font-specification:DINPro-Black"
         d="m 136.0625,549.46875 c 0,41.85417 0,83.70833 0,125.5625 29.89583,0 59.79167,0 89.6875,0 0,-9.4375 0,-18.875 0,-28.3125 -19.01042,0 -38.02083,0 -57.03125,0 0,-7.29167 0,-14.58333 0,-21.875 16.25,0 32.5,0 48.75,0 0,-9.42708 0,-18.85417 0,-28.28125 -16.25,0 -32.5,0 -48.75,0 0,-6.92708 0,-13.85417 0,-20.78125 19.01042,0 38.02083,0 57.03125,0 0,-9.4375 0,-18.875 0,-28.3125 -29.89583,0 -59.79167,0 -89.6875,0 l 0,1 0,1 z"
         id="path4027-1"
         inkscape:connector-curvature="0" />
      <path
         style="font-size:201px;font-style:normal;font-variant:normal;font-weight:bold;font-stretch:normal;line-height:125%;letter-spacing:0px;word-spacing:0px;fill:#a0b6b6;fill-opacity:1;stroke:none;font-family:DINPro-Black;-inkscape-font-specification:DINPro-Black"
         d="m 248.21875,549.46875 c 0,41.85417 0,83.70833 0,125.5625 10.88542,0 21.77083,0 32.65625,0 0,-16.36458 0,-32.72917 0,-49.09375 16.25,0 32.5,0 48.75,0 0,-9.42708 0,-18.85417 0,-28.28125 -16.25,0 -32.5,0 -48.75,0 0,-7.29167 0,-14.58333 0,-21.875 19.01042,0 38.02083,0 57.03125,0 0,-9.4375 0,-18.875 0,-28.3125 -29.89583,0 -59.79167,0 -89.6875,0 l 0,1 0,1 z"
         id="path4029-7"
         inkscape:connector-curvature="0" />
      <path
         style="font-size:201px;font-style:normal;font-variant:normal;font-weight:bold;font-stretch:normal;line-height:125%;letter-spacing:0px;word-spacing:0px;fill:#a0b6b6;fill-opacity:1;stroke:none;font-family:DINPro-Black;-inkscape-font-specification:DINPro-Black"
         d="m 358.21875,549.46875 c 0,41.85417 0,83.70833 0,125.5625 29.28125,0 58.5625,0 87.84375,0 0,-9.4375 0,-18.875 0,-28.3125 -18.40625,0 -36.8125,0 -55.21875,0 0,-33.08333 0,-66.16667 0,-99.25 -10.875,0 -21.75,0 -32.625,0 l 0,1 0,1 z"
         id="path4031-1"
         inkscape:connector-curvature="0" />
      <path
         style="font-size:201px;font-style:normal;font-variant:normal;font-weight:bold;font-stretch:normal;line-height:125%;letter-spacing:0px;word-spacing:0px;fill:#a0b6b6;fill-opacity:1;stroke:none;font-family:DINPro-Black;-inkscape-font-specification:DINPro-Black"
         d="m 464.625,549.46875 c 0,41.85417 0,83.70833 0,125.5625 29.89583,0 59.79167,0 89.6875,0 0,-9.4375 0,-18.875 0,-28.3125 -19.02083,0 -38.04167,0 -57.0625,0 0,-7.29167 0,-14.58333 0,-21.875 16.25,0 32.5,0 48.75,0 0,-9.42708 0,-18.85417 0,-28.28125 -16.25,0 -32.5,0 -48.75,0 0,-6.92708 0,-13.85417 0,-20.78125 19.02083,0 38.04167,0 57.0625,0 0,-9.4375 0,-18.875 0,-28.3125 -29.89583,0 -59.79167,0 -89.6875,0 l 0,1 0,1 z"
         id="path4033-1"
         inkscape:connector-curvature="0" />
      <path
         style="font-size:201px;font-style:normal;font-variant:normal;font-weight:bold;font-stretch:normal;line-height:125%;letter-spacing:0px;word-spacing:0px;fill:#a0b6b6;fill-opacity:1;stroke:none;font-family:DINPro-Black;-inkscape-font-specification:DINPro-Black"
         d="m 619.9375,546.46875 c -24.96164,-0.45243 -48.57808,21.79907 -46.83211,47.24871 -0.69646,19.62835 -2.93159,40.73119 5.76961,58.93879 16.47075,28.53929 61.67782,31.76112 82.78125,6.875 5.09761,-6.22853 10.18937,-14.51955 9.21875,-22.59375 -3.91948,-5.38944 -11.27388,-1.55054 -16.74988,-2.70312 -5.01686,-0.12152 -10.11334,-0.29092 -15.03137,0.85937 -1.9836,14.63044 -25.80808,17.71182 -31.125,3.78125 -3.99334,-10.69496 -2.15807,-22.57176 -2.78125,-33.8125 0.80426,-8.99561 -0.49101,-19.79204 6.40625,-26.625 8.51426,-7.11102 24.27823,-3.99866 27.125,7.4375 4.02451,5.11247 11.68983,0.94602 17.09345,2.34698 5.55389,0.15191 11.11811,0.14433 16.65655,-0.34698 -2.28069,-23.54977 -24.63724,-42.4856 -48.18686,-41.44194 -1.44742,-0.064 -2.89777,-0.0322 -4.34439,0.0357 z"
         id="path4035-5"
         inkscape:connector-curvature="0" />
      <path
         style="font-size:201px;font-style:normal;font-variant:normal;font-weight:bold;font-stretch:normal;line-height:125%;letter-spacing:0px;word-spacing:0px;fill:#a0b6b6;fill-opacity:1;stroke:none;font-family:DINPro-Black;-inkscape-font-specification:DINPro-Black"
         d="m 681.5625,549.46875 c 0,8.77083 0,17.54167 0,26.3125 10.77083,0 21.54167,0 32.3125,0 0,33.08333 0,66.16667 0,99.25 10.875,0 21.75,0 32.625,0 0,-33.08333 0,-66.16667 0,-99.25 10.77083,0 21.54167,0 32.3125,0 0,-9.4375 0,-18.875 0,-28.3125 -32.41667,0 -64.83333,0 -97.25,0 l 0,1 0,1 z"
         id="path4037-2"
         inkscape:connector-curvature="0" />
      <path
         style="font-size:201px;font-style:normal;font-variant:normal;font-weight:bold;font-stretch:normal;line-height:125%;letter-spacing:0px;word-spacing:0px;fill:#a0b6b6;fill-opacity:1;stroke:none;font-family:DINPro-Black;-inkscape-font-specification:DINPro-Black"
         d="m 839.375,546.28125 c -23.07879,0.74738 -45.32826,19.97663 -45.46002,43.92949 -0.72943,19.42419 -2.76864,39.76028 3.73344,58.40692 10.00261,23.68788 40.42108,33.08915 63.78908,24.81984 17.39802,-5.53022 30.81043,-21.87893 31.59375,-40.25 0.70073,-19.35473 2.53272,-39.51288 -3.1875,-58.21875 -8.06352,-19.51578 -29.68565,-30.46742 -50.46875,-28.6875 z m 4.46875,28.3125 c 9.75004,-0.42442 17.75853,9.58004 16.41166,19.09144 0.78249,15.67794 2.68879,32.46746 -2.94291,47.31481 -6.91427,10.12368 -25.97674,8.83672 -29.21875,-3.875 -3.58607,-12.81979 -1.63525,-26.57375 -1.90625,-39.8125 -0.0999,-8.92173 2.88806,-20.56265 13.21875,-22.25 1.45748,-0.35764 2.95212,-0.37562 4.4375,-0.46875 z"
         id="path4039-7"
         inkscape:connector-curvature="0" />
      <path
         style="font-size:201px;font-style:normal;font-variant:normal;font-weight:bold;font-stretch:normal;line-height:125%;letter-spacing:0px;word-spacing:0px;fill:#a0b6b6;fill-opacity:1;stroke:none;font-family:DINPro-Black;-inkscape-font-specification:DINPro-Black"
         d="m 948.09375,547.40625 c -10.53884,0.34343 -21.10502,-0.242 -31.625,0.625 -1.6139,14.25886 -0.0157,28.72296 -0.6875,43.0625 0,27.97917 0,55.95833 0,83.9375 10.875,0 21.75,0 32.625,0 0.40098,-15.62276 -0.604,-31.83961 0.4375,-47.09375 3.91445,-0.008 10.59677,-2.44365 11.87855,3.08498 7.19348,14.67625 14.44469,29.32459 21.62145,44.00877 12.63542,0 25.27085,0 37.90625,0 -9.5024,-17.67015 -18.9455,-35.37224 -28.46875,-53.03125 18.87095,-8.50063 27.26715,-33.6433 17.06255,-51.8125 -8.0221,-15.80768 -26.2806,-24.04979 -43.56255,-22.65625 -5.72752,-0.20237 -11.45762,-0.17188 -17.1875,-0.125 z M 965.1875,575.625 c 8.70716,-0.53623 18.16994,7.58348 14.625,16.75 -2.36763,7.40495 -10.74025,9.86197 -17.74991,8.91976 -4.54255,0.0622 -9.08178,-0.2476 -13.62509,-0.16976 0.10657,-8.3101 -0.21154,-17.04487 0.15625,-25.09375 5.53436,0.21149 11.06978,-0.10345 16.59375,-0.40625 z"
         id="path4041-6"
         inkscape:connector-curvature="0" />
    </g>
    <g
       inkscape:groupmode="layer"
       id="layer2"
       inkscape:label="TopText"
       style="display:inline">
      <path
         style="font-size:201px;font-style:normal;font-variant:normal;font-weight:bold;font-stretch:normal;line-height:125%;letter-spacing:0px;word-spacing:0px;fill:#c9cccc;fill-opacity:1;stroke:none;font-family:DINPro-Black;-inkscape-font-specification:DINPro-Black"
         d="m 312.6596,344.08833 c -8.88713,0.28873 -17.78646,-0.0527 -26.67022,0.33299 0.0724,38.6898 -0.10457,77.46138 -0.0287,116.18654 7.10058,0 14.20115,0 21.30173,0 0,-16.14087 0,-32.28175 0,-48.42262 6.67447,3.6451 16.28491,-2.55095 21.41656,4.41215 7.36693,14.58156 14.4462,29.35563 21.70365,44.01047 8.33505,0 16.67009,0 25.00514,0 -9.02375,-16.80092 -18.0417,-33.59462 -27.07215,-50.39282 18.03048,-4.68688 28.50354,-25.42118 21.70365,-42.20677 -5.09662,-15.23405 -21.65802,-24.87819 -38.0101,-23.6702 -6.44531,-0.30676 -12.89836,-0.30763 -19.34955,-0.24974 z m 16.1342,17.1491 c 10.41183,-0.40778 21.72208,6.58716 21.81848,17.39884 0.68292,10.24782 -8.64251,20.03778 -19.43567,19.20256 -7.96441,0.52077 -15.95353,-0.4484 -23.91421,0.22199 0,-12.18196 0,-24.36393 0,-36.5459 7.18925,0.21053 14.36051,0.27054 21.5314,-0.27749 z"
         id="path4017-8-1"
         inkscape:connector-curvature="0" />
      <path
         style="font-size:201px;font-style:normal;font-variant:normal;font-weight:bold;font-stretch:normal;line-height:125%;letter-spacing:0px;word-spacing:0px;fill:#c9cccc;fill-opacity:1;stroke:none;font-family:DINPro-Black;-inkscape-font-specification:DINPro-Black"
         d="m 442.59442,343.0616 c -21.30027,0.71284 -40.77369,19.16447 -39.75173,40.17815 -0.86273,18.40965 -2.55043,37.55816 3.57898,55.19638 7.88681,16.98053 28.58298,25.86438 47.22553,23.05971 20.01499,-2.06179 37.60698,-19.49396 36.88434,-39.34361 1.02848,-18.19995 2.36067,-37.10055 -3.03698,-54.72669 -7.0506,-16.4331 -25.94243,-25.95058 -43.92405,-24.39169 l -0.91828,0.0261 -0.0578,0.002 z m 3.50244,17.17685 c 13.06098,-1.03487 24.10132,11.11962 23.04757,23.38927 1.13195,16.14981 2.13116,32.87587 -2.23389,48.6203 -6.12021,14.08429 -28.80179,16.75895 -37.83784,3.96816 -7.15401,-10.09138 -4.80278,-23.06123 -5.59816,-34.60344 0.39167,-11.16661 -0.84812,-23.62551 5.65558,-33.38247 4.033,-5.00211 10.46837,-7.86354 16.96674,-7.99182 z"
         id="path4019-2-4"
         inkscape:connector-curvature="0" />
      <path
         style="font-size:201px;font-style:normal;font-variant:normal;font-weight:bold;font-stretch:normal;line-height:125%;letter-spacing:0px;word-spacing:0px;fill:#c9cccc;fill-opacity:1;stroke:none;font-family:DINPro-Black;-inkscape-font-specification:DINPro-Black"
         d="m 525.21757,343.78309 c -2.45643,1.28996 0.29756,5.34243 -0.48805,7.65882 0.1149,36.30534 -0.22975,73.05487 0.17225,109.08271 21.74702,-0.63301 43.81436,1.95129 65.34062,-1.72046 13.20528,-3.70771 22.51193,-16.73169 21.78977,-29.99706 0.44455,-10.51204 -6.00611,-20.9128 -16.19161,-24.75242 -3.62026,-2.96628 -0.005,-7.76353 3.64598,-8.57455 16.97744,-11.58972 12.64515,-40.23157 -6.28716,-47.70114 -13.84765,-5.63131 -29.41177,-3.10577 -44.09631,-3.60741 -7.96094,0.2053 -15.9517,0.27445 -23.88549,-0.38849 z m 43.12021,17.50984 c 8.6642,-0.57949 19.314,3.58125 20.29693,12.95895 2.11068,9.51121 -6.39321,19.81076 -16.67966,18.56431 -8.64544,0.43876 -17.3052,-0.25821 -25.95251,0.1665 0,-10.49851 0,-20.99701 0,-31.49552 7.44505,0.31369 14.89641,0.21221 22.33524,-0.19424 z m 0.94738,48.75561 c 8.75216,-0.6092 19.39684,3.0931 20.98594,12.48721 2.74937,9.98387 -5.71759,22.11352 -17.05216,20.62482 -9.06896,0.34853 -18.1455,-0.13493 -27.2164,0.1317 0,-11.02575 0,-22.05149 0,-33.07723 7.75975,0.33888 15.5262,0.12463 23.28262,-0.1665 z"
         id="path4021-4-2"
         inkscape:connector-curvature="0" />
      <path
         style="font-size:201px;font-style:normal;font-variant:normal;font-weight:bold;font-stretch:normal;line-height:125%;letter-spacing:0px;word-spacing:0px;fill:#c9cccc;fill-opacity:1;stroke:none;font-family:DINPro-Black;-inkscape-font-specification:DINPro-Black"
         d="m 681.90872,343.0061 c -21.45423,0.61141 -41.19595,18.62645 -40.26317,40.00849 -1.05015,18.35807 -2.44219,37.5276 3.40142,55.19955 8.3323,18.14969 30.59174,26.68802 50.06768,22.89321 18.978,-3.27028 34.86485,-20.11422 34.16236,-39.03414 1.18465,-17.81359 2.1108,-36.27804 -2.61169,-53.5932 -6.58692,-16.79213 -25.56724,-26.9149 -43.83792,-25.50165 l -0.91823,0.0277 -4.5e-4,2e-5 z m 2.84215,17.23235 c 13.00127,-1.0903 24.10551,10.95699 23.13369,23.19503 1.10887,16.16737 2.15352,33.0169 -2.20517,48.7313 -5.69089,13.1212 -25.82798,16.70174 -35.97179,6.21585 -9.28168,-9.37868 -6.53,-23.76906 -7.52164,-35.60242 0.24195,-10.95836 -0.54317,-22.69583 4.44983,-32.77198 3.76442,-5.96795 10.9041,-9.6689 18.11508,-9.76778 z"
         id="path4023-5-3"
         inkscape:connector-curvature="0" />
      <path
         style="font-size:201px;font-style:normal;font-variant:normal;font-weight:bold;font-stretch:normal;line-height:125%;letter-spacing:0px;word-spacing:0px;fill:#c9cccc;fill-opacity:1;stroke:none;font-family:DINPro-Black;-inkscape-font-specification:DINPro-Black"
         d="m 46.945317,552.90742 c -8.887137,0.28873 -17.786465,-0.0527 -26.670224,0.33299 0.07236,38.6898 -0.104569,77.46137 -0.02871,116.18654 7.100577,0 14.201153,0 21.301729,0 0,-16.14087 0,-32.28175 0,-48.42262 6.674472,3.6451 16.284912,-2.55095 21.416567,4.41215 7.36693,14.58156 14.446196,29.35563 21.703648,44.01047 8.335046,0 16.670083,0 25.005133,0 -9.02375,-16.80092 -18.041693,-33.59463 -27.072147,-50.39282 18.030477,-4.68688 28.503537,-25.42118 21.703647,-42.20677 -5.096619,-15.23405 -21.658016,-24.8782 -38.010092,-23.6702 -6.445311,-0.30676 -12.898364,-0.30763 -19.349552,-0.24974 z m 16.134197,17.1491 c 10.411835,-0.40778 21.722077,6.58716 21.818482,17.39884 0.682914,10.24782 -8.642516,20.03778 -19.435674,19.20256 -7.964411,0.52077 -15.953531,-0.4484 -23.914209,0.22199 0,-12.18197 0,-24.36393 0,-36.5459 7.18925,0.21053 14.360512,0.27054 21.531401,-0.27749 z"
         id="path4025-5-2"
         inkscape:connector-curvature="0" />
      <path
         style="font-size:201px;font-style:normal;font-variant:normal;font-weight:bold;font-stretch:normal;line-height:125%;letter-spacing:0px;word-spacing:0px;fill:#c9cccc;fill-opacity:1;stroke:none;font-family:DINPro-Black;-inkscape-font-specification:DINPro-Black"
         d="m 140.70738,669.42695 c 26.11519,0 52.23039,0 78.34558,0 0,-5.73486 0,-11.46973 0,-17.2046 -19.01462,0 -38.02923,0 -57.04385,0 0,-10.98874 0,-21.97748 0,-32.96623 16.24903,0 32.49806,0 48.74708,0 0,-5.72562 0,-11.45123 0,-17.17685 -16.24902,0 -32.49805,0 -48.74708,0 0,-10.628 0,-21.256 0,-31.884 19.01462,0 38.02923,0 57.04385,0 0,-5.73487 0,-11.46974 0,-17.2046 -26.11519,0 -52.23039,0 -78.34558,0 0,38.81209 0,77.62419 0,116.43628 z"
         id="path4027-1-2"
         inkscape:connector-curvature="0" />
      <path
         style="font-size:201px;font-style:normal;font-variant:normal;font-weight:bold;font-stretch:normal;line-height:125%;letter-spacing:0px;word-spacing:0px;fill:#c9cccc;fill-opacity:1;stroke:none;font-family:DINPro-Black;-inkscape-font-specification:DINPro-Black"
         d="m 252.87161,669.42695 c 7.10058,0 14.20115,0 21.30173,0 0,-16.36286 0,-32.72574 0,-49.0886 16.24902,0 32.49805,0 48.74708,0 0,-5.72562 0,-11.45123 0,-17.17685 -16.24903,0 -32.49806,0 -48.74708,0 0,-10.98875 0,-21.97749 0,-32.96623 19.01462,0 38.02923,0 57.04385,0 0,-5.73487 0,-11.46974 0,-17.2046 -26.11519,0 -52.23039,0 -78.34558,0 0,38.81209 0,77.62419 0,116.43628 z"
         id="path4029-7-1"
         inkscape:connector-curvature="0" />
      <path
         style="font-size:201px;font-style:normal;font-variant:normal;font-weight:bold;font-stretch:normal;line-height:125%;letter-spacing:0px;word-spacing:0px;fill:#c9cccc;fill-opacity:1;stroke:none;font-family:DINPro-Black;-inkscape-font-specification:DINPro-Black"
         d="m 362.88269,669.42695 c 25.49318,0 50.98635,0 76.47953,0 0,-5.73486 0,-11.46973 0,-17.2046 -18.40217,0 -36.80434,0 -55.2065,0 0,-33.07723 0,-66.15445 0,-99.23168 -7.09101,0 -14.18202,0 -21.27303,0 0,38.81209 0,77.62419 0,116.43628 z"
         id="path4031-1-6"
         inkscape:connector-curvature="0" />
      <path
         style="font-size:201px;font-style:normal;font-variant:normal;font-weight:bold;font-stretch:normal;line-height:125%;letter-spacing:0px;word-spacing:0px;fill:#c9cccc;fill-opacity:1;stroke:none;font-family:DINPro-Black;-inkscape-font-specification:DINPro-Black"
         d="m 469.27651,669.42695 c 26.11519,0 52.23039,0 78.34557,0 0,-5.73486 0,-11.46973 0,-17.2046 -19.02418,0 -38.04837,0 -57.07255,0 0,-10.98874 0,-21.97748 0,-32.96623 16.24903,0 32.49805,0 48.74708,0 0,-5.72562 0,-11.45123 0,-17.17685 -16.24903,0 -32.49805,0 -48.74708,0 0,-10.628 0,-21.256 0,-31.884 19.02418,0 38.04837,0 57.07255,0 0,-5.73487 0,-11.46974 0,-17.2046 -26.11518,0 -52.23038,0 -78.34557,0 0,38.81209 0,77.62419 0,116.43628 z"
         id="path4033-1-8"
         inkscape:connector-curvature="0" />
      <path
         style="font-size:201px;font-style:normal;font-variant:normal;font-weight:bold;font-stretch:normal;line-height:125%;letter-spacing:0px;word-spacing:0px;fill:#c9cccc;fill-opacity:1;stroke:none;font-family:DINPro-Black;-inkscape-font-specification:DINPro-Black"
         d="m 618.99149,551.99169 c -22.08605,-0.28755 -42.46041,18.98851 -41.1889,40.67754 -0.85309,17.98641 -2.3367,36.7217 3.37977,54.05875 8.04615,17.78932 29.55665,26.72881 48.77579,23.33721 16.45667,-2.15812 31.3877,-14.78728 34.62249,-30.46879 -7.31925,0.68093 -14.68875,-0.41644 -22.01945,0.36074 -5.1159,14.29815 -27.20689,18.30999 -37.23496,6.63209 -8.2373,-9.11052 -5.88077,-22.16557 -6.92572,-33.35438 0.099,-11.11385 -0.18452,-22.77633 3.79649,-33.29956 7.13071,-13.80836 30.40232,-14.70072 38.32589,-1.22097 1.19626,2.24589 1.8944,5.17783 5.16693,3.90814 6.14524,-0.45198 13.36721,0.70886 18.86211,-0.24523 -4.32212,-17.39775 -21.601,-30.67458 -40.22065,-30.38554 -1.77697,-0.0896 -3.5628,-0.0853 -5.33979,0 z"
         id="path4035-5-5"
         inkscape:connector-curvature="0" />
      <path
         style="font-size:201px;font-style:normal;font-variant:normal;font-weight:bold;font-stretch:normal;line-height:125%;letter-spacing:0px;word-spacing:0px;fill:#c9cccc;fill-opacity:1;stroke:none;font-family:DINPro-Black;-inkscape-font-specification:DINPro-Black"
         d="m 686.19816,570.19527 c 10.77527,0 21.55053,0 32.3258,0 0,33.07722 0,66.15445 0,99.23168 7.09101,0 14.18202,0 21.27302,0 0,-33.07723 0,-66.15446 0,-99.23168 10.77528,0 21.55054,0 32.32581,0 0,-5.73487 0,-11.46974 0,-17.2046 -28.64154,0 -57.28309,0 -85.92463,0 0,5.73486 0,11.46973 0,17.2046 z"
         id="path4037-2-7"
         inkscape:connector-curvature="0" />
      <path
         style="font-size:201px;font-style:normal;font-variant:normal;font-weight:bold;font-stretch:normal;line-height:125%;letter-spacing:0px;word-spacing:0px;fill:#c9cccc;fill-opacity:1;stroke:none;font-family:DINPro-Black;-inkscape-font-specification:DINPro-Black"
         d="m 843.4922,551.85294 c -19.27658,-1.37933 -38.50097,11.1878 -43.57955,29.24782 -2.42354,11.66187 -1.83037,23.77173 -2.19499,35.63005 0.64182,14.22511 0.45214,30.46534 11.86976,41.04141 17.69419,18.12039 51.81509,17.21488 67.89567,-2.46969 10.1382,-11.08205 8.91912,-26.70551 9.64607,-40.4863 -0.25732,-12.11263 0.27202,-24.69428 -3.0431,-36.40716 -5.78571,-15.97995 -23.15488,-27.04297 -40.59386,-26.55613 z m -1.77993,17.2046 c 13.00408,-1.10673 24.13692,10.97516 23.13215,23.25066 1.11033,16.16304 2.16512,32.91243 -2.17493,48.67567 -5.97483,13.86522 -27.98141,16.80493 -37.3785,4.68964 -7.61193,-9.76356 -5.32184,-22.89872 -6.09217,-34.35369 0.36142,-11.06689 -0.83115,-23.1539 4.8577,-33.16049 3.85781,-5.58878 10.71636,-8.99408 17.65575,-9.10179 z"
         id="path4039-7-6"
         inkscape:connector-curvature="0" />
      <path
         style="font-size:201px;font-style:normal;font-variant:normal;font-weight:bold;font-stretch:normal;line-height:125%;letter-spacing:0px;word-spacing:0px;fill:#c9cccc;fill-opacity:1;stroke:none;font-family:DINPro-Black;-inkscape-font-specification:DINPro-Black"
         d="m 947.12994,552.90742 c -8.88715,0.28873 -17.78642,-0.0527 -26.67013,0.33299 0.0726,38.6898 -0.10464,77.46137 -0.0285,116.18654 7.10056,0 14.20108,0 21.30168,0 0,-16.14087 0,-32.28175 0,-48.42262 6.67444,3.6451 16.28495,-2.55095 21.41657,4.41215 7.36693,14.58156 14.44622,29.35563 21.70365,44.01047 8.33502,0 16.67009,0 25.00509,0 -9.0237,-16.80092 -18.04164,-33.59463 -27.07211,-50.39282 18.03041,-4.68688 28.50361,-25.42118 21.70371,-42.20677 -5.09667,-15.23405 -21.65805,-24.8782 -38.01015,-23.6702 -6.44532,-0.30676 -12.89835,-0.30763 -19.34955,-0.24974 z m 16.1342,17.1491 c 10.36713,-0.39911 21.71623,6.54606 21.78972,17.34334 0.81606,10.63965 -9.18819,20.4411 -20.32398,19.3102 -7.66155,0.39626 -15.34175,-0.47405 -22.99714,0.16985 0,-12.18197 0,-24.36393 0,-36.5459 7.18926,0.21053 14.36051,0.27054 21.5314,-0.27749 z"
         id="path4041-6-1"
         inkscape:connector-curvature="0" />
    </g>
  </g>
</svg>
